<?xml version="1.0" standalone="no"?><svg xmlns:xlink="http://www.w3.org/1999/xlink" xmlns="http://www.w3.org/2000/svg" viewBox="0 0 1600 799.9876286619161" preserveAspectRatio="xMaxYMax slice"><g transform="scale(2.474267616785432)"><rect x="0" y="0" width="646.6659999999999" height="323.33299999999997" fill="#ffffff"/><rect x="0" y="0" width="32.333299999999994" height="32.333299999999994" fill="#ffffff"/><rect x="0" y="0" width="16.17" height="16.17" fill="#7cb4c1"/><path d="M 0 0 A 16.17 16.17 0 0 1 16.17 16.17 L 0 16.17L0 0" fill="#7cb4c1"/><rect x="16.17" y="0" width="16.17" height="16.17" fill="#013132"/><path d="M 16.17 16.17 A 16.17 16.17 0 0 1  32.34 0 L 32.34 16.17L16.17 16.17" fill="#7cb4c1"/><rect x="0" y="16.17" width="16.17" height="16.17" fill="#7cb4c1"/><path d="M 0 32.34 A 16.17 16.17 0 0 0 16.17 16.17 L 0 16.17L0 32.34" fill="#013132"/><rect x="16.17" y="16.17" width="16.17" height="16.17" fill="#7cb4c1"/><path d="M 16.17 16.17 A 16.17 16.17 0 0 0 32.34 32.34 L 32.34 16.17L16.17 16.17" fill="#7cb4c1"/><rect x="32.33" y="0" width="32.33" height="32.33" fill="#013132"/><polygon points="32.33,0 64.66,0 32.33,32.33" fill="#7cb4c1"/><rect x="64.67" y="0" width="32.33" height="32.33" fill="#013132"/><polygon points="64.67,0 97,32.33 64.67,32.33" fill="#7cb4c1"/><rect x="96.99989999999998" y="0" width="32.333299999999994" height="32.333299999999994" fill="#ffffff"/><rect x="97" y="0" width="16.17" height="16.17" fill="#013132"/><path d="M 97 0 A 16.17 16.17 0 0 0 113.17 16.17 L 113.17 0L97 0" fill="#013132"/><rect x="113.17" y="0" width="16.17" height="16.17" fill="#7cb4c1"/><path d="M 113.17 16.17 A 16.17 16.17 0 0 0 129.34 0 L 113.17 0L113.17 16.17" fill="#7cb4c1"/><rect x="97" y="16.17" width="16.17" height="16.17" fill="#013132"/><path d="M 97 32.34 A 16.17 16.17 0 0 1  113.17 16.17 L 113.17 32.34L97 32.34" fill="#013132"/><rect x="113.17" y="16.17" width="16.17" height="16.17" fill="#7cb4c1"/><path d="M 113.17 16.17 A 16.17 16.17 0 0 1 129.34 32.34 L 113.17 32.34L113.17 16.17" fill="#7cb4c1"/><rect x="129.33" y="0" width="32.33" height="32.33" fill="#013132"/><rect x="129.33" y="0" width="32.33" height="32.33" fill="#7cb4c1"/><rect x="161.66649999999998" y="0" width="32.333299999999994" height="32.333299999999994" fill="#ffffff"/><rect x="161.67" y="0" width="16.17" height="16.17" fill="#7cb4c1"/><polygon points="177.83999999999997,0 177.83999999999997,16.17 161.67,16.17" fill="#7cb4c1"/><rect x="177.83" y="0" width="16.17" height="16.17" fill="#7cb4c1"/><polygon points="177.83,0 194,16.17 177.83,16.17" fill="#7cb4c1"/><rect x="161.67" y="16.17" width="16.17" height="16.17" fill="#013132"/><polygon points="161.67,16.17 177.83999999999997,16.17 177.83999999999997,32.34" fill="#7cb4c1"/><rect x="177.83" y="16.17" width="16.17" height="16.17" fill="#013132"/><polygon points="177.83,16.17 194,16.17 177.83,32.34" fill="#013132"/><rect x="193.99979999999996" y="0" width="32.333299999999994" height="32.333299999999994" fill="#ffffff"/><rect x="194" y="0" width="16.17" height="16.17" fill="#7cb4c1"/><path d="M 194 16.17 A 16.17 16.17 0 0 1 210.17000000000002 0 L 210.17000000000002 4.0425 A 12.127500000000001 12.127500000000001 0 0 0 198.0425 16.17" fill="#013132"/><rect x="210.17" y="0" width="16.17" height="16.17" fill="#013132"/><path d="M 210.17 0 A 16.17 16.17 0 0 1 226.33999999999997 16.17 L 222.29749999999999 16.17 A 12.127500000000001 12.127500000000001 0 0 0 210.17 4.0425" fill="#013132"/><rect x="194" y="16.17" width="16.17" height="16.17" fill="#7cb4c1"/><path d="M 194 16.17 A 16.17 16.17 0 0 0 210.17000000000002 32.34 L 210.17000000000002 28.297500000000003 A 12.127500000000001 12.127500000000001 0 0 1 198.0425 16.17" fill="#013132"/><rect x="210.17" y="16.17" width="16.17" height="16.17" fill="#013132"/><path d="M 210.17 32.34 A 16.17 16.17 0 0 0 226.33999999999997 16.17 L 222.29749999999999 16.17 A 12.127500000000001 12.127500000000001 0 0 1 210.17 28.297500000000003" fill="#7cb4c1"/><rect x="226.33309999999994" y="0" width="32.333299999999994" height="32.333299999999994" fill="#ffffff"/><rect x="226.33" y="0" width="16.17" height="16.17" fill="#7cb4c1"/><path d="M 226.33 16.17 A 16.17 16.17 0 0 0 242.5 0 L 226.33 0L226.33 16.17" fill="#013132"/><rect x="242.5" y="0" width="16.17" height="16.17" fill="#013132"/><path d="M 242.5 0 A 16.17 16.17 0 0 0 258.67 16.17 L 258.67 0L242.5 0" fill="#013132"/><rect x="226.33" y="16.17" width="16.17" height="16.17" fill="#7cb4c1"/><path d="M 226.33 16.17 A 16.17 16.17 0 0 1 242.5 32.34 L 226.33 32.34L226.33 16.17" fill="#013132"/><rect x="242.5" y="16.17" width="16.17" height="16.17" fill="#013132"/><path d="M 242.5 32.34 A 16.17 16.17 0 0 1  258.67 16.17 L 258.67 32.34L242.5 32.34" fill="#7cb4c1"/><rect x="258.67" y="0" width="32.33" height="32.33" fill="#013132"/><polygon points="291,0 291,32.33 258.67,32.33" fill="#7cb4c1"/><rect x="290.99969999999996" y="0" width="32.333299999999994" height="32.333299999999994" fill="#ffffff"/><rect x="291" y="0" width="16.17" height="16.17" fill="#7cb4c1"/><circle cx="299.085" cy="8.085" r="8.085" fill="#7cb4c1"/><rect x="307.17" y="0" width="16.17" height="16.17" fill="#013132"/><rect x="307.17" y="0" width="16.17" height="16.17" fill="#013132"/><rect x="291" y="16.17" width="16.17" height="16.17" fill="#013132"/><circle cx="299.085" cy="24.255000000000003" r="8.085" fill="#013132"/><rect x="307.17" y="16.17" width="16.17" height="16.17" fill="#013132"/><rect x="307.17" y="16.17" width="16.17" height="16.17" fill="#7cb4c1"/><rect x="323.33" y="0" width="32.33" height="32.33" fill="#7cb4c1"/><path d="M 323.33 0 A 32.33 32.33 0 0 0 355.65999999999997 32.33 L 355.65999999999997 0L323.33 0" fill="#7cb4c1"/><rect x="355.67" y="0" width="32.33" height="32.33" fill="#7cb4c1"/><polygon points="355.67,0 388,0 388,32.33" fill="#7cb4c1"/><rect x="387.99959999999993" y="0" width="32.333299999999994" height="32.333299999999994" fill="#ffffff"/><rect x="388" y="0" width="16.17" height="16.17" fill="#7cb4c1"/><path d="M 388 16.17 A 16.17 16.17 0 0 0 404.17 0 L 388 0L388 16.17" fill="#013132"/><rect x="404.17" y="0" width="16.17" height="16.17" fill="#7cb4c1"/><path d="M 404.17 0 A 16.17 16.17 0 0 0 420.34000000000003 16.17 L 420.34000000000003 0L404.17 0" fill="#7cb4c1"/><rect x="388" y="16.17" width="16.17" height="16.17" fill="#013132"/><path d="M 388 16.17 A 16.17 16.17 0 0 1 404.17 32.34 L 388 32.34L388 16.17" fill="#7cb4c1"/><rect x="404.17" y="16.17" width="16.17" height="16.17" fill="#7cb4c1"/><path d="M 404.17 32.34 A 16.17 16.17 0 0 1  420.34000000000003 16.17 L 420.34000000000003 32.34L404.17 32.34" fill="#013132"/><rect x="420.33289999999994" y="0" width="32.333299999999994" height="32.333299999999994" fill="#ffffff"/><rect x="420.33" y="0" width="16.17" height="16.17" fill="#7cb4c1"/><path d="M 420.33 0 A 16.17 16.17 0 0 1 436.5 16.17 L 420.33 16.17L420.33 0" fill="#013132"/><rect x="436.5" y="0" width="16.17" height="16.17" fill="#013132"/><path d="M 436.5 16.17 A 16.17 16.17 0 0 1  452.67 0 L 452.67 16.17L436.5 16.17" fill="#013132"/><rect x="420.33" y="16.17" width="16.17" height="16.17" fill="#7cb4c1"/><path d="M 420.33 32.34 A 16.17 16.17 0 0 0 436.5 16.17 L 420.33 16.17L420.33 32.34" fill="#7cb4c1"/><rect x="436.5" y="16.17" width="16.17" height="16.17" fill="#013132"/><path d="M 436.5 16.17 A 16.17 16.17 0 0 0 452.67 32.34 L 452.67 16.17L436.5 16.17" fill="#013132"/><rect x="452.6661999999999" y="0" width="32.333299999999994" height="32.333299999999994" fill="#ffffff"/><rect x="452.67" y="0" width="16.17" height="16.17" fill="#013132"/><path d="M 452.67 0 A 16.17 16.17 0 0 1 468.84000000000003 16.17 L 452.67 16.17L452.67 0" fill="#7cb4c1"/><rect x="468.83" y="0" width="16.17" height="16.17" fill="#013132"/><path d="M 468.83 16.17 A 16.17 16.17 0 0 1  485 0 L 485 16.17L468.83 16.17" fill="#7cb4c1"/><rect x="452.67" y="16.17" width="16.17" height="16.17" fill="#013132"/><path d="M 452.67 32.34 A 16.17 16.17 0 0 0 468.84000000000003 16.17 L 452.67 16.17L452.67 32.34" fill="#013132"/><rect x="468.83" y="16.17" width="16.17" height="16.17" fill="#013132"/><path d="M 468.83 16.17 A 16.17 16.17 0 0 0 485 32.34 L 485 16.17L468.83 16.17" fill="#7cb4c1"/><rect x="484.9994999999999" y="0" width="32.333299999999994" height="32.333299999999994" fill="#ffffff"/><rect x="485" y="0" width="16.17" height="16.17" fill="#013132"/><polygon points="501.17,0 501.17,16.17 485,16.17" fill="#7cb4c1"/><rect x="501.17" y="0" width="16.17" height="16.17" fill="#013132"/><polygon points="501.17,0 517.34,16.17 501.17,16.17" fill="#7cb4c1"/><rect x="485" y="16.17" width="16.17" height="16.17" fill="#7cb4c1"/><polygon points="485,16.17 501.17,16.17 501.17,32.34" fill="#7cb4c1"/><rect x="501.17" y="16.17" width="16.17" height="16.17" fill="#013132"/><polygon points="501.17,16.17 517.34,16.17 501.17,32.34" fill="#013132"/><rect x="517.3327999999999" y="0" width="32.333299999999994" height="32.333299999999994" fill="#ffffff"/><rect x="517.33" y="0" width="16.17" height="16.17" fill="#7cb4c1"/><polygon points="533.5,0 533.5,16.17 517.33,16.17" fill="#7cb4c1"/><rect x="533.5" y="0" width="16.17" height="16.17" fill="#7cb4c1"/><polygon points="533.5,0 549.67,16.17 533.5,16.17" fill="#7cb4c1"/><rect x="517.33" y="16.17" width="16.17" height="16.17" fill="#013132"/><polygon points="517.33,16.17 533.5,16.17 517.33,32.34" fill="#013132"/><rect x="533.5" y="16.17" width="16.17" height="16.17" fill="#013132"/><polygon points="533.5,16.17 549.67,16.17 549.67,32.34" fill="#013132"/><rect x="549.67" y="0" width="32.33" height="32.33" fill="#013132"/><rect x="549.67" y="0" width="32.33" height="32.33" fill="#7cb4c1"/><rect x="581.9993999999999" y="0" width="32.333299999999994" height="32.333299999999994" fill="#ffffff"/><rect x="582" y="0" width="16.17" height="16.17" fill="#7cb4c1"/><polygon points="598.17,0 598.17,16.17 582,16.17" fill="#7cb4c1"/><rect x="598.17" y="0" width="16.17" height="16.17" fill="#7cb4c1"/><polygon points="598.17,0 614.3399999999999,16.17 598.17,16.17" fill="#7cb4c1"/><rect x="582" y="16.17" width="16.17" height="16.17" fill="#7cb4c1"/><polygon points="582,16.17 598.17,16.17 598.17,32.34" fill="#013132"/><rect x="598.17" y="16.17" width="16.17" height="16.17" fill="#7cb4c1"/><polygon points="598.17,16.17 614.3399999999999,16.17 598.17,32.34" fill="#7cb4c1"/><rect x="614.33" y="0" width="32.33" height="32.33" fill="#013132"/><rect x="614.33" y="0" width="32.33" height="32.33" fill="#7cb4c1"/><rect x="0" y="32.333299999999994" width="32.333299999999994" height="32.333299999999994" fill="#ffffff"/><rect x="0" y="32.33" width="16.17" height="16.17" fill="#013132"/><path d="M 0 32.33 A 16.17 16.17 0 0 1 16.17 48.5 L 0 48.5L0 32.33" fill="#7cb4c1"/><rect x="16.17" y="32.33" width="16.17" height="16.17" fill="#7cb4c1"/><path d="M 16.17 48.5 A 16.17 16.17 0 0 1  32.34 32.33 L 32.34 48.5L16.17 48.5" fill="#7cb4c1"/><rect x="0" y="48.5" width="16.17" height="16.17" fill="#7cb4c1"/><path d="M 0 64.67 A 16.17 16.17 0 0 0 16.17 48.5 L 0 48.5L0 64.67" fill="#013132"/><rect x="16.17" y="48.5" width="16.17" height="16.17" fill="#013132"/><path d="M 16.17 48.5 A 16.17 16.17 0 0 0 32.34 64.67 L 32.34 48.5L16.17 48.5" fill="#013132"/><rect x="32.333299999999994" y="32.333299999999994" width="32.333299999999994" height="32.333299999999994" fill="#ffffff"/><rect x="32.33" y="32.33" width="16.17" height="16.17" fill="#7cb4c1"/><circle cx="40.415" cy="40.415" r="8.085" fill="#013132"/><rect x="48.5" y="32.33" width="16.17" height="16.17" fill="#013132"/><rect x="48.5" y="32.33" width="16.17" height="16.17" fill="#013132"/><rect x="32.33" y="48.5" width="16.17" height="16.17" fill="#7cb4c1"/><circle cx="40.415" cy="56.585" r="8.085" fill="#013132"/><rect x="48.5" y="48.5" width="16.17" height="16.17" fill="#7cb4c1"/><rect x="48.5" y="48.5" width="16.17" height="16.17" fill="#7cb4c1"/><rect x="64.67" y="32.33" width="32.33" height="32.33" fill="#7cb4c1"/><polygon points="64.67,32.33 97,32.33 97,64.66" fill="#013132"/><rect x="96.99989999999998" y="32.333299999999994" width="32.333299999999994" height="32.333299999999994" fill="#ffffff"/><rect x="97" y="32.33" width="16.17" height="16.17" fill="#7cb4c1"/><path d="M 97 32.33 A 16.17 16.17 0 0 0 113.17 48.5 L 113.17 32.33L97 32.33" fill="#013132"/><rect x="113.17" y="32.33" width="16.17" height="16.17" fill="#7cb4c1"/><path d="M 113.17 48.5 A 16.17 16.17 0 0 0 129.34 32.33 L 113.17 32.33L113.17 48.5" fill="#7cb4c1"/><rect x="97" y="48.5" width="16.17" height="16.17" fill="#7cb4c1"/><path d="M 97 64.67 A 16.17 16.17 0 0 1  113.17 48.5 L 113.17 64.67L97 64.67" fill="#013132"/><rect x="113.17" y="48.5" width="16.17" height="16.17" fill="#013132"/><path d="M 113.17 48.5 A 16.17 16.17 0 0 1 129.34 64.67 L 113.17 64.67L113.17 48.5" fill="#013132"/><rect x="129.33" y="32.33" width="32.33" height="32.33" fill="#013132"/><path d="M 129.33 64.66 A 32.33 32.33 0 0 1  161.66000000000003 32.33 L 161.66000000000003 64.66L129.33 64.66" fill="#7cb4c1"/><rect x="161.67" y="32.33" width="32.33" height="32.33" fill="#7cb4c1"/><polygon points="194,32.33 194,64.66 161.67,64.66" fill="#013132"/><rect x="194" y="32.33" width="32.33" height="32.33" fill="#7cb4c1"/><rect x="194" y="32.33" width="32.33" height="32.33" fill="#7cb4c1"/><rect x="226.33309999999994" y="32.333299999999994" width="32.333299999999994" height="32.333299999999994" fill="#ffffff"/><rect x="226.33" y="32.33" width="16.17" height="16.17" fill="#013132"/><path d="M 226.33 48.5 A 16.17 16.17 0 0 1  242.5 32.33 L 242.5 48.5L226.33 48.5" fill="#013132"/><rect x="242.5" y="32.33" width="16.17" height="16.17" fill="#013132"/><path d="M 242.5 32.33 A 16.17 16.17 0 0 1 258.67 48.5 L 242.5 48.5L242.5 32.33" fill="#7cb4c1"/><rect x="226.33" y="48.5" width="16.17" height="16.17" fill="#013132"/><path d="M 226.33 48.5 A 16.17 16.17 0 0 0 242.5 64.67 L 242.5 48.5L226.33 48.5" fill="#7cb4c1"/><rect x="242.5" y="48.5" width="16.17" height="16.17" fill="#013132"/><path d="M 242.5 64.67 A 16.17 16.17 0 0 0 258.67 48.5 L 242.5 48.5L242.5 64.67" fill="#7cb4c1"/><rect x="258.66639999999995" y="32.333299999999994" width="32.333299999999994" height="32.333299999999994" fill="#ffffff"/><rect x="258.67" y="32.33" width="16.17" height="16.17" fill="#7cb4c1"/><path d="M 258.67 48.5 A 16.17 16.17 0 0 0 274.84000000000003 32.33 L 258.67 32.33L258.67 48.5" fill="#013132"/><rect x="274.83" y="32.33" width="16.17" height="16.17" fill="#7cb4c1"/><path d="M 274.83 32.33 A 16.17 16.17 0 0 0 291 48.5 L 291 32.33L274.83 32.33" fill="#013132"/><rect x="258.67" y="48.5" width="16.17" height="16.17" fill="#7cb4c1"/><path d="M 258.67 48.5 A 16.17 16.17 0 0 1 274.84000000000003 64.67 L 258.67 64.67L258.67 48.5" fill="#013132"/><rect x="274.83" y="48.5" width="16.17" height="16.17" fill="#7cb4c1"/><path d="M 274.83 64.67 A 16.17 16.17 0 0 1  291 48.5 L 291 64.67L274.83 64.67" fill="#7cb4c1"/><rect x="291" y="32.33" width="32.33" height="32.33" fill="#7cb4c1"/><path d="M 291 64.66 A 32.33 32.33 0 0 1  323.33 32.33 L 323.33 64.66L291 64.66" fill="#013132"/><rect x="323.33299999999997" y="32.333299999999994" width="32.333299999999994" height="32.333299999999994" fill="#ffffff"/><rect x="323.33" y="32.33" width="16.17" height="16.17" fill="#7cb4c1"/><path d="M 323.33 48.5 A 16.17 16.17 0 0 1  339.5 32.33 L 339.5 48.5L323.33 48.5" fill="#013132"/><rect x="339.5" y="32.33" width="16.17" height="16.17" fill="#7cb4c1"/><path d="M 339.5 32.33 A 16.17 16.17 0 0 1 355.67 48.5 L 339.5 48.5L339.5 32.33" fill="#7cb4c1"/><rect x="323.33" y="48.5" width="16.17" height="16.17" fill="#7cb4c1"/><path d="M 323.33 48.5 A 16.17 16.17 0 0 0 339.5 64.67 L 339.5 48.5L323.33 48.5" fill="#013132"/><rect x="339.5" y="48.5" width="16.17" height="16.17" fill="#013132"/><path d="M 339.5 64.67 A 16.17 16.17 0 0 0 355.67 48.5 L 339.5 48.5L339.5 64.67" fill="#7cb4c1"/><rect x="355.67" y="32.33" width="32.33" height="32.33" fill="#7cb4c1"/><path d="M 355.67 32.33 A 32.33 32.33 0 0 0 388 64.66 L 388 32.33L355.67 32.33" fill="#013132"/><rect x="388" y="32.33" width="32.33" height="32.33" fill="#7cb4c1"/><path d="M 388 32.33 A 32.33 32.33 0 0 0 420.33 64.66 L 420.33 32.33L388 32.33" fill="#7cb4c1"/><rect x="420.33" y="32.33" width="32.33" height="32.33" fill="#013132"/><path d="M 420.33 32.33 A 32.33 32.33 0 0 0 452.65999999999997 64.66 L 452.65999999999997 32.33L420.33 32.33" fill="#013132"/><rect x="452.67" y="32.33" width="32.33" height="32.33" fill="#7cb4c1"/><polygon points="452.67,32.33 485,32.33 485,64.66" fill="#013132"/><rect x="484.9994999999999" y="32.333299999999994" width="32.333299999999994" height="32.333299999999994" fill="#ffffff"/><rect x="485" y="32.33" width="16.17" height="16.17" fill="#7cb4c1"/><polygon points="501.17,32.33 501.17,48.5 485,48.5" fill="#013132"/><rect x="501.17" y="32.33" width="16.17" height="16.17" fill="#013132"/><polygon points="501.17,32.33 517.34,48.5 501.17,48.5" fill="#7cb4c1"/><rect x="485" y="48.5" width="16.17" height="16.17" fill="#7cb4c1"/><polygon points="485,48.5 501.17,48.5 501.17,64.67" fill="#013132"/><rect x="501.17" y="48.5" width="16.17" height="16.17" fill="#013132"/><polygon points="501.17,48.5 517.34,48.5 501.17,64.67" fill="#013132"/><rect x="517.33" y="32.33" width="32.33" height="32.33" fill="#7cb4c1"/><rect x="517.33" y="32.33" width="32.33" height="32.33" fill="#7cb4c1"/><rect x="549.67" y="32.33" width="32.33" height="32.33" fill="#013132"/><path d="M 549.67 32.33 A 32.33 32.33 0 0 1 582 64.66 L 549.67 64.66L549.67 32.33" fill="#7cb4c1"/><rect x="582" y="32.33" width="32.33" height="32.33" fill="#013132"/><rect x="582" y="32.33" width="32.33" height="32.33" fill="#013132"/><rect x="614.33" y="32.33" width="32.33" height="32.33" fill="#7cb4c1"/><path d="M 614.33 32.33 A 32.33 32.33 0 0 1  646.6600000000001 64.66 L 614.33 32.33 A 32.33 32.33 0 0 0 646.6600000000001 64.66" fill="#7cb4c1"/><rect x="0" y="64.67" width="32.33" height="32.33" fill="#013132"/><rect x="0" y="64.67" width="32.33" height="32.33" fill="#013132"/><rect x="32.33" y="64.67" width="32.33" height="32.33" fill="#7cb4c1"/><path d="M 32.33 64.67 A 32.33 32.33 0 0 0 64.66 97 L 64.66 64.67L32.33 64.67" fill="#013132"/><rect x="64.66659999999999" y="64.66659999999999" width="32.333299999999994" height="32.333299999999994" fill="#ffffff"/><rect x="64.67" y="64.67" width="16.17" height="16.17" fill="#7cb4c1"/><polygon points="80.84,64.67 80.84,80.84 64.67,80.84" fill="#013132"/><rect x="80.83" y="64.67" width="16.17" height="16.17" fill="#013132"/><polygon points="80.83,64.67 97,80.84 80.83,80.84" fill="#7cb4c1"/><rect x="64.67" y="80.83" width="16.17" height="16.17" fill="#7cb4c1"/><polygon points="64.67,80.83 80.84,80.83 80.84,97" fill="#013132"/><rect x="80.83" y="80.83" width="16.17" height="16.17" fill="#7cb4c1"/><polygon points="80.83,80.83 97,80.83 80.83,97" fill="#013132"/><rect x="96.99989999999998" y="64.66659999999999" width="32.333299999999994" height="32.333299999999994" fill="#ffffff"/><rect x="97" y="64.67" width="16.17" height="16.17" fill="#7cb4c1"/><path d="M 97 64.67 A 16.17 16.17 0 0 1 113.17 80.84 L 97 80.84L97 64.67" fill="#013132"/><rect x="113.17" y="64.67" width="16.17" height="16.17" fill="#7cb4c1"/><path d="M 113.17 80.84 A 16.17 16.17 0 0 1  129.34 64.67 L 129.34 80.84L113.17 80.84" fill="#7cb4c1"/><rect x="97" y="80.83" width="16.17" height="16.17" fill="#013132"/><path d="M 97 97 A 16.17 16.17 0 0 0 113.17 80.83 L 97 80.83L97 97" fill="#7cb4c1"/><rect x="113.17" y="80.83" width="16.17" height="16.17" fill="#013132"/><path d="M 113.17 80.83 A 16.17 16.17 0 0 0 129.34 97 L 129.34 80.83L113.17 80.83" fill="#013132"/><rect x="129.33" y="64.67" width="32.33" height="32.33" fill="#013132"/><polygon points="161.66000000000003,64.67 161.66000000000003,97 129.33,97" fill="#7cb4c1"/><rect x="161.67" y="64.67" width="32.33" height="32.33" fill="#7cb4c1"/><rect x="161.67" y="64.67" width="32.33" height="32.33" fill="#013132"/><rect x="194" y="64.67" width="32.33" height="32.33" fill="#7cb4c1"/><polygon points="226.32999999999998,64.67 226.32999999999998,97 194,97" fill="#013132"/><rect x="226.33" y="64.67" width="32.33" height="32.33" fill="#7cb4c1"/><polygon points="226.33,64.67 258.66,97 226.33,97" fill="#013132"/><rect x="258.66639999999995" y="64.66659999999999" width="32.333299999999994" height="32.333299999999994" fill="#ffffff"/><rect x="258.67" y="64.67" width="16.17" height="16.17" fill="#013132"/><circle cx="266.755" cy="72.755" r="8.085" fill="#013132"/><rect x="274.83" y="64.67" width="16.17" height="16.17" fill="#7cb4c1"/><rect x="274.83" y="64.67" width="16.17" height="16.17" fill="#7cb4c1"/><rect x="258.67" y="80.83" width="16.17" height="16.17" fill="#7cb4c1"/><circle cx="266.755" cy="88.91499999999999" r="8.085" fill="#013132"/><rect x="274.83" y="80.83" width="16.17" height="16.17" fill="#013132"/><rect x="274.83" y="80.83" width="16.17" height="16.17" fill="#013132"/><rect x="290.99969999999996" y="64.66659999999999" width="32.333299999999994" height="32.333299999999994" fill="#ffffff"/><rect x="291" y="64.67" width="16.17" height="16.17" fill="#013132"/><path d="M 291 80.84 A 16.17 16.17 0 0 1  307.17 64.67 L 307.17 80.84L291 80.84" fill="#7cb4c1"/><rect x="307.17" y="64.67" width="16.17" height="16.17" fill="#013132"/><path d="M 307.17 64.67 A 16.17 16.17 0 0 1 323.34000000000003 80.84 L 307.17 80.84L307.17 64.67" fill="#013132"/><rect x="291" y="80.83" width="16.17" height="16.17" fill="#013132"/><path d="M 291 80.83 A 16.17 16.17 0 0 0 307.17 97 L 307.17 80.83L291 80.83" fill="#013132"/><rect x="307.17" y="80.83" width="16.17" height="16.17" fill="#013132"/><path d="M 307.17 97 A 16.17 16.17 0 0 0 323.34000000000003 80.83 L 307.17 80.83L307.17 97" fill="#013132"/><rect x="323.33" y="64.67" width="32.33" height="32.33" fill="#7cb4c1"/><path d="M 323.33 64.67 A 32.33 32.33 0 0 1  355.65999999999997 97 L 323.33 64.67 A 32.33 32.33 0 0 0 355.65999999999997 97" fill="#013132"/><rect x="355.6662999999999" y="64.66659999999999" width="32.333299999999994" height="32.333299999999994" fill="#ffffff"/><rect x="355.67" y="64.67" width="16.17" height="16.17" fill="#7cb4c1"/><path d="M 355.67 80.84 A 16.17 16.17 0 0 1 371.84000000000003 64.67 L 371.84000000000003 68.7125 A 12.127500000000001 12.127500000000001 0 0 0 359.71250000000003 80.84" fill="#7cb4c1"/><rect x="371.83" y="64.67" width="16.17" height="16.17" fill="#7cb4c1"/><path d="M 371.83 64.67 A 16.17 16.17 0 0 1 388 80.84 L 383.9575 80.84 A 12.127500000000001 12.127500000000001 0 0 0 371.83 68.7125" fill="#013132"/><rect x="355.67" y="80.83" width="16.17" height="16.17" fill="#7cb4c1"/><path d="M 355.67 80.83 A 16.17 16.17 0 0 0 371.84000000000003 97 L 371.84000000000003 92.9575 A 12.127500000000001 12.127500000000001 0 0 1 359.71250000000003 80.83" fill="#013132"/><rect x="371.83" y="80.83" width="16.17" height="16.17" fill="#013132"/><path d="M 371.83 97 A 16.17 16.17 0 0 0 388 80.83 L 383.9575 80.83 A 12.127500000000001 12.127500000000001 0 0 1 371.83 92.9575" fill="#7cb4c1"/><rect x="387.99959999999993" y="64.66659999999999" width="32.333299999999994" height="32.333299999999994" fill="#ffffff"/><rect x="388" y="64.67" width="16.17" height="16.17" fill="#013132"/><circle cx="396.085" cy="72.755" r="8.085" fill="#7cb4c1"/><rect x="404.17" y="64.67" width="16.17" height="16.17" fill="#013132"/><rect x="404.17" y="64.67" width="16.17" height="16.17" fill="#7cb4c1"/><rect x="388" y="80.83" width="16.17" height="16.17" fill="#7cb4c1"/><circle cx="396.085" cy="88.91499999999999" r="8.085" fill="#013132"/><rect x="404.17" y="80.83" width="16.17" height="16.17" fill="#013132"/><rect x="404.17" y="80.83" width="16.17" height="16.17" fill="#013132"/><rect x="420.33289999999994" y="64.66659999999999" width="32.333299999999994" height="32.333299999999994" fill="#ffffff"/><rect x="420.33" y="64.67" width="16.17" height="16.17" fill="#013132"/><path d="M 420.33 80.84 A 16.17 16.17 0 0 1  436.5 64.67 L 436.5 80.84L420.33 80.84" fill="#7cb4c1"/><rect x="436.5" y="64.67" width="16.17" height="16.17" fill="#7cb4c1"/><path d="M 436.5 64.67 A 16.17 16.17 0 0 1 452.67 80.84 L 436.5 80.84L436.5 64.67" fill="#013132"/><rect x="420.33" y="80.83" width="16.17" height="16.17" fill="#7cb4c1"/><path d="M 420.33 80.83 A 16.17 16.17 0 0 0 436.5 97 L 436.5 80.83L420.33 80.83" fill="#013132"/><rect x="436.5" y="80.83" width="16.17" height="16.17" fill="#013132"/><path d="M 436.5 97 A 16.17 16.17 0 0 0 452.67 80.83 L 436.5 80.83L436.5 97" fill="#013132"/><rect x="452.6661999999999" y="64.66659999999999" width="32.333299999999994" height="32.333299999999994" fill="#ffffff"/><rect x="452.67" y="64.67" width="16.17" height="16.17" fill="#7cb4c1"/><polygon points="468.84000000000003,64.67 468.84000000000003,80.84 452.67,80.84" fill="#7cb4c1"/><rect x="468.83" y="64.67" width="16.17" height="16.17" fill="#013132"/><polygon points="468.83,64.67 485,80.84 468.83,80.84" fill="#013132"/><rect x="452.67" y="80.83" width="16.17" height="16.17" fill="#7cb4c1"/><polygon points="452.67,80.83 468.84000000000003,80.83 452.67,97" fill="#7cb4c1"/><rect x="468.83" y="80.83" width="16.17" height="16.17" fill="#7cb4c1"/><polygon points="468.83,80.83 485,80.83 485,97" fill="#013132"/><rect x="484.9994999999999" y="64.66659999999999" width="32.333299999999994" height="32.333299999999994" fill="#ffffff"/><rect x="485" y="64.67" width="16.17" height="16.17" fill="#7cb4c1"/><path d="M 485 80.84 A 16.17 16.17 0 0 0 501.17 64.67 L 485 64.67L485 80.84" fill="#013132"/><rect x="501.17" y="64.67" width="16.17" height="16.17" fill="#7cb4c1"/><path d="M 501.17 64.67 A 16.17 16.17 0 0 0 517.34 80.84 L 517.34 64.67L501.17 64.67" fill="#013132"/><rect x="485" y="80.83" width="16.17" height="16.17" fill="#013132"/><path d="M 485 80.83 A 16.17 16.17 0 0 1 501.17 97 L 485 97L485 80.83" fill="#013132"/><rect x="501.17" y="80.83" width="16.17" height="16.17" fill="#7cb4c1"/><path d="M 501.17 97 A 16.17 16.17 0 0 1  517.34 80.83 L 517.34 97L501.17 97" fill="#013132"/><rect x="517.33" y="64.67" width="32.33" height="32.33" fill="#013132"/><rect x="517.33" y="64.67" width="32.33" height="32.33" fill="#013132"/><rect x="549.6660999999999" y="64.66659999999999" width="32.333299999999994" height="32.333299999999994" fill="#ffffff"/><rect x="549.67" y="64.67" width="16.17" height="16.17" fill="#013132"/><polygon points="565.8399999999999,64.67 565.8399999999999,80.84 549.67,80.84" fill="#013132"/><rect x="565.83" y="64.67" width="16.17" height="16.17" fill="#7cb4c1"/><polygon points="565.83,64.67 582,64.67 565.83,80.84" fill="#013132"/><rect x="549.67" y="80.83" width="16.17" height="16.17" fill="#7cb4c1"/><polygon points="549.67,80.83 565.8399999999999,80.83 565.8399999999999,97" fill="#7cb4c1"/><rect x="565.83" y="80.83" width="16.17" height="16.17" fill="#7cb4c1"/><polygon points="565.83,80.83 582,97 565.83,97" fill="#7cb4c1"/><rect x="582" y="64.67" width="32.33" height="32.33" fill="#7cb4c1"/><rect x="582" y="64.67" width="32.33" height="32.33" fill="#7cb4c1"/><rect x="614.33" y="64.67" width="32.33" height="32.33" fill="#013132"/><path d="M 614.33 97 A 32.33 32.33 0 0 1  646.6600000000001 64.67 L 614.33 97 A 32.33 32.33 0 0 0 646.6600000000001 64.67" fill="#7cb4c1"/><rect x="0" y="96.99989999999998" width="32.333299999999994" height="32.333299999999994" fill="#ffffff"/><rect x="0" y="97" width="16.17" height="16.17" fill="#7cb4c1"/><polygon points="16.17,97 16.17,113.17 0,113.17" fill="#7cb4c1"/><rect x="16.17" y="97" width="16.17" height="16.17" fill="#7cb4c1"/><polygon points="16.17,97 32.34,113.17 16.17,113.17" fill="#7cb4c1"/><rect x="0" y="113.17" width="16.17" height="16.17" fill="#013132"/><polygon points="0,113.17 16.17,113.17 0,129.34" fill="#013132"/><rect x="16.17" y="113.17" width="16.17" height="16.17" fill="#7cb4c1"/><polygon points="16.17,113.17 32.34,113.17 32.34,129.34" fill="#013132"/><rect x="32.333299999999994" y="96.99989999999998" width="32.333299999999994" height="32.333299999999994" fill="#ffffff"/><rect x="32.33" y="97" width="16.17" height="16.17" fill="#013132"/><path d="M 32.33 97 A 16.17 16.17 0 0 1 48.5 113.17 L 32.33 113.17L32.33 97" fill="#7cb4c1"/><rect x="48.5" y="97" width="16.17" height="16.17" fill="#7cb4c1"/><path d="M 48.5 113.17 A 16.17 16.17 0 0 1  64.67 97 L 64.67 113.17L48.5 113.17" fill="#013132"/><rect x="32.33" y="113.17" width="16.17" height="16.17" fill="#7cb4c1"/><path d="M 32.33 129.34 A 16.17 16.17 0 0 0 48.5 113.17 L 32.33 113.17L32.33 129.34" fill="#7cb4c1"/><rect x="48.5" y="113.17" width="16.17" height="16.17" fill="#013132"/><path d="M 48.5 113.17 A 16.17 16.17 0 0 0 64.67 129.34 L 64.67 113.17L48.5 113.17" fill="#013132"/><rect x="64.67" y="97" width="32.33" height="32.33" fill="#013132"/><rect x="64.67" y="97" width="32.33" height="32.33" fill="#013132"/><rect x="97" y="97" width="32.33" height="32.33" fill="#7cb4c1"/><polygon points="97,97 129.32999999999998,97 129.32999999999998,129.32999999999998" fill="#013132"/><rect x="129.33319999999998" y="96.99989999999998" width="32.333299999999994" height="32.333299999999994" fill="#ffffff"/><rect x="129.33" y="97" width="16.17" height="16.17" fill="#013132"/><path d="M 129.33 113.17 A 16.17 16.17 0 0 1  145.5 97 L 145.5 113.17L129.33 113.17" fill="#7cb4c1"/><rect x="145.5" y="97" width="16.17" height="16.17" fill="#7cb4c1"/><path d="M 145.5 97 A 16.17 16.17 0 0 1 161.67000000000002 113.17 L 145.5 113.17L145.5 97" fill="#013132"/><rect x="129.33" y="113.17" width="16.17" height="16.17" fill="#7cb4c1"/><path d="M 129.33 113.17 A 16.17 16.17 0 0 0 145.5 129.34 L 145.5 113.17L129.33 113.17" fill="#7cb4c1"/><rect x="145.5" y="113.17" width="16.17" height="16.17" fill="#013132"/><path d="M 145.5 129.34 A 16.17 16.17 0 0 0 161.67000000000002 113.17 L 145.5 113.17L145.5 129.34" fill="#7cb4c1"/><rect x="161.67" y="97" width="32.33" height="32.33" fill="#7cb4c1"/><polygon points="194,97 194,129.32999999999998 161.67,129.32999999999998" fill="#7cb4c1"/><rect x="194" y="97" width="32.33" height="32.33" fill="#013132"/><polygon points="194,97 226.32999999999998,97 194,129.32999999999998" fill="#013132"/><rect x="226.33309999999994" y="96.99989999999998" width="32.333299999999994" height="32.333299999999994" fill="#ffffff"/><rect x="226.33" y="97" width="16.17" height="16.17" fill="#7cb4c1"/><path d="M 226.33 113.17 A 16.17 16.17 0 0 1 242.5 97 L 242.5 101.0425 A 12.127500000000001 12.127500000000001 0 0 0 230.3725 113.17" fill="#7cb4c1"/><rect x="242.5" y="97" width="16.17" height="16.17" fill="#7cb4c1"/><path d="M 242.5 97 A 16.17 16.17 0 0 1 258.67 113.17 L 254.6275 113.17 A 12.127500000000001 12.127500000000001 0 0 0 242.5 101.0425" fill="#013132"/><rect x="226.33" y="113.17" width="16.17" height="16.17" fill="#7cb4c1"/><path d="M 226.33 113.17 A 16.17 16.17 0 0 0 242.5 129.34 L 242.5 125.2975 A 12.127500000000001 12.127500000000001 0 0 1 230.3725 113.17" fill="#013132"/><rect x="242.5" y="113.17" width="16.17" height="16.17" fill="#013132"/><path d="M 242.5 129.34 A 16.17 16.17 0 0 0 258.67 113.17 L 254.6275 113.17 A 12.127500000000001 12.127500000000001 0 0 1 242.5 125.2975" fill="#013132"/><rect x="258.66639999999995" y="96.99989999999998" width="32.333299999999994" height="32.333299999999994" fill="#ffffff"/><rect x="258.67" y="97" width="16.17" height="16.17" fill="#7cb4c1"/><path d="M 258.67 97 A 16.17 16.17 0 0 0 274.84000000000003 113.17 L 274.84000000000003 97L258.67 97" fill="#013132"/><rect x="274.83" y="97" width="16.17" height="16.17" fill="#013132"/><path d="M 274.83 113.17 A 16.17 16.17 0 0 0 291 97 L 274.83 97L274.83 113.17" fill="#013132"/><rect x="258.67" y="113.17" width="16.17" height="16.17" fill="#013132"/><path d="M 258.67 129.34 A 16.17 16.17 0 0 1  274.84000000000003 113.17 L 274.84000000000003 129.34L258.67 129.34" fill="#013132"/><rect x="274.83" y="113.17" width="16.17" height="16.17" fill="#7cb4c1"/><path d="M 274.83 113.17 A 16.17 16.17 0 0 1 291 129.34 L 274.83 129.34L274.83 113.17" fill="#013132"/><rect x="291" y="97" width="32.33" height="32.33" fill="#013132"/><polygon points="323.33,97 323.33,129.32999999999998 291,129.32999999999998" fill="#013132"/><rect x="323.33" y="97" width="32.33" height="32.33" fill="#7cb4c1"/><path d="M 323.33 129.32999999999998 A 32.33 32.33 0 0 1  355.65999999999997 97 L 355.65999999999997 129.32999999999998L323.33 129.32999999999998" fill="#013132"/><rect x="355.67" y="97" width="32.33" height="32.33" fill="#013132"/><rect x="355.67" y="97" width="32.33" height="32.33" fill="#7cb4c1"/><rect x="388" y="97" width="32.33" height="32.33" fill="#7cb4c1"/><polygon points="388,97 420.33,97 420.33,129.32999999999998" fill="#013132"/><rect x="420.33289999999994" y="96.99989999999998" width="32.333299999999994" height="32.333299999999994" fill="#ffffff"/><rect x="420.33" y="97" width="16.17" height="16.17" fill="#013132"/><path d="M 420.33 97 A 16.17 16.17 0 0 0 436.5 113.17 L 436.5 97L420.33 97" fill="#013132"/><rect x="436.5" y="97" width="16.17" height="16.17" fill="#013132"/><path d="M 436.5 113.17 A 16.17 16.17 0 0 0 452.67 97 L 436.5 97L436.5 113.17" fill="#013132"/><rect x="420.33" y="113.17" width="16.17" height="16.17" fill="#013132"/><path d="M 420.33 129.34 A 16.17 16.17 0 0 1  436.5 113.17 L 436.5 129.34L420.33 129.34" fill="#013132"/><rect x="436.5" y="113.17" width="16.17" height="16.17" fill="#013132"/><path d="M 436.5 113.17 A 16.17 16.17 0 0 1 452.67 129.34 L 436.5 129.34L436.5 113.17" fill="#013132"/><rect x="452.67" y="97" width="32.33" height="32.33" fill="#013132"/><rect x="452.67" y="97" width="32.33" height="32.33" fill="#013132"/><rect x="484.9994999999999" y="96.99989999999998" width="32.333299999999994" height="32.333299999999994" fill="#ffffff"/><rect x="485" y="97" width="16.17" height="16.17" fill="#013132"/><path d="M 485 97 A 16.17 16.17 0 0 0 501.17 113.17 L 501.17 97L485 97" fill="#7cb4c1"/><rect x="501.17" y="97" width="16.17" height="16.17" fill="#013132"/><path d="M 501.17 113.17 A 16.17 16.17 0 0 0 517.34 97 L 501.17 97L501.17 113.17" fill="#7cb4c1"/><rect x="485" y="113.17" width="16.17" height="16.17" fill="#7cb4c1"/><path d="M 485 129.34 A 16.17 16.17 0 0 1  501.17 113.17 L 501.17 129.34L485 129.34" fill="#013132"/><rect x="501.17" y="113.17" width="16.17" height="16.17" fill="#7cb4c1"/><path d="M 501.17 113.17 A 16.17 16.17 0 0 1 517.34 129.34 L 501.17 129.34L501.17 113.17" fill="#7cb4c1"/><rect x="517.3327999999999" y="96.99989999999998" width="32.333299999999994" height="32.333299999999994" fill="#ffffff"/><rect x="517.33" y="97" width="16.17" height="16.17" fill="#013132"/><path d="M 517.33 97 A 16.17 16.17 0 0 1 533.5 113.17 L 517.33 113.17L517.33 97" fill="#013132"/><rect x="533.5" y="97" width="16.17" height="16.17" fill="#013132"/><path d="M 533.5 113.17 A 16.17 16.17 0 0 1  549.67 97 L 549.67 113.17L533.5 113.17" fill="#7cb4c1"/><rect x="517.33" y="113.17" width="16.17" height="16.17" fill="#7cb4c1"/><path d="M 517.33 129.34 A 16.17 16.17 0 0 0 533.5 113.17 L 517.33 113.17L517.33 129.34" fill="#013132"/><rect x="533.5" y="113.17" width="16.17" height="16.17" fill="#013132"/><path d="M 533.5 113.17 A 16.17 16.17 0 0 0 549.67 129.34 L 549.67 113.17L533.5 113.17" fill="#013132"/><rect x="549.6660999999999" y="96.99989999999998" width="32.333299999999994" height="32.333299999999994" fill="#ffffff"/><rect x="549.67" y="97" width="16.17" height="16.17" fill="#013132"/><path d="M 549.67 113.17 A 16.17 16.17 0 0 1  565.8399999999999 97 L 565.8399999999999 113.17L549.67 113.17" fill="#013132"/><rect x="565.83" y="97" width="16.17" height="16.17" fill="#013132"/><path d="M 565.83 97 A 16.17 16.17 0 0 1 582 113.17 L 565.83 113.17L565.83 97" fill="#7cb4c1"/><rect x="549.67" y="113.17" width="16.17" height="16.17" fill="#013132"/><path d="M 549.67 113.17 A 16.17 16.17 0 0 0 565.8399999999999 129.34 L 565.8399999999999 113.17L549.67 113.17" fill="#013132"/><rect x="565.83" y="113.17" width="16.17" height="16.17" fill="#7cb4c1"/><path d="M 565.83 129.34 A 16.17 16.17 0 0 0 582 113.17 L 565.83 113.17L565.83 129.34" fill="#7cb4c1"/><rect x="581.9993999999999" y="96.99989999999998" width="32.333299999999994" height="32.333299999999994" fill="#ffffff"/><rect x="582" y="97" width="16.17" height="16.17" fill="#7cb4c1"/><circle cx="590.085" cy="105.08500000000001" r="8.085" fill="#013132"/><rect x="598.17" y="97" width="16.17" height="16.17" fill="#013132"/><rect x="598.17" y="97" width="16.17" height="16.17" fill="#7cb4c1"/><rect x="582" y="113.17" width="16.17" height="16.17" fill="#7cb4c1"/><circle cx="590.085" cy="121.255" r="8.085" fill="#013132"/><rect x="598.17" y="113.17" width="16.17" height="16.17" fill="#7cb4c1"/><rect x="598.17" y="113.17" width="16.17" height="16.17" fill="#7cb4c1"/><rect x="614.33" y="97" width="32.33" height="32.33" fill="#013132"/><path d="M 614.33 97 A 32.33 32.33 0 0 1  646.6600000000001 129.32999999999998 L 614.33 97 A 32.33 32.33 0 0 0 646.6600000000001 129.32999999999998" fill="#013132"/><rect x="0" y="129.33319999999998" width="32.333299999999994" height="32.333299999999994" fill="#ffffff"/><rect x="0" y="129.33" width="16.17" height="16.17" fill="#7cb4c1"/><path d="M 0 129.33 A 16.17 16.17 0 0 1 16.17 145.5 L 0 145.5L0 129.33" fill="#7cb4c1"/><rect x="16.17" y="129.33" width="16.17" height="16.17" fill="#013132"/><path d="M 16.17 145.5 A 16.17 16.17 0 0 1  32.34 129.33 L 32.34 145.5L16.17 145.5" fill="#013132"/><rect x="0" y="145.5" width="16.17" height="16.17" fill="#7cb4c1"/><path d="M 0 161.67000000000002 A 16.17 16.17 0 0 0 16.17 145.5 L 0 145.5L0 161.67000000000002" fill="#013132"/><rect x="16.17" y="145.5" width="16.17" height="16.17" fill="#7cb4c1"/><path d="M 16.17 145.5 A 16.17 16.17 0 0 0 32.34 161.67000000000002 L 32.34 145.5L16.17 145.5" fill="#7cb4c1"/><rect x="32.33" y="129.33" width="32.33" height="32.33" fill="#7cb4c1"/><path d="M 32.33 161.66000000000003 A 32.33 32.33 0 0 0 64.66 129.33 L 32.33 129.33L32.33 161.66000000000003" fill="#013132"/><rect x="64.67" y="129.33" width="32.33" height="32.33" fill="#7cb4c1"/><polygon points="64.67,129.33 97,129.33 64.67,161.66000000000003" fill="#7cb4c1"/><rect x="97" y="129.33" width="32.33" height="32.33" fill="#013132"/><polygon points="129.32999999999998,129.33 129.32999999999998,161.66000000000003 97,161.66000000000003" fill="#013132"/><rect x="129.33319999999998" y="129.33319999999998" width="32.333299999999994" height="32.333299999999994" fill="#ffffff"/><rect x="129.33" y="129.33" width="16.17" height="16.17" fill="#7cb4c1"/><circle cx="137.41500000000002" cy="137.41500000000002" r="8.085" fill="#7cb4c1"/><rect x="145.5" y="129.33" width="16.17" height="16.17" fill="#013132"/><rect x="145.5" y="129.33" width="16.17" height="16.17" fill="#013132"/><rect x="129.33" y="145.5" width="16.17" height="16.17" fill="#7cb4c1"/><circle cx="137.41500000000002" cy="153.585" r="8.085" fill="#013132"/><rect x="145.5" y="145.5" width="16.17" height="16.17" fill="#7cb4c1"/><rect x="145.5" y="145.5" width="16.17" height="16.17" fill="#7cb4c1"/><rect x="161.66649999999998" y="129.33319999999998" width="32.333299999999994" height="32.333299999999994" fill="#ffffff"/><rect x="161.67" y="129.33" width="16.17" height="16.17" fill="#7cb4c1"/><path d="M 161.67 145.5 A 16.17 16.17 0 0 1  177.83999999999997 129.33 L 177.83999999999997 145.5L161.67 145.5" fill="#7cb4c1"/><rect x="177.83" y="129.33" width="16.17" height="16.17" fill="#7cb4c1"/><path d="M 177.83 129.33 A 16.17 16.17 0 0 1 194 145.5 L 177.83 145.5L177.83 129.33" fill="#7cb4c1"/><rect x="161.67" y="145.5" width="16.17" height="16.17" fill="#013132"/><path d="M 161.67 145.5 A 16.17 16.17 0 0 0 177.83999999999997 161.67000000000002 L 177.83999999999997 145.5L161.67 145.5" fill="#7cb4c1"/><rect x="177.83" y="145.5" width="16.17" height="16.17" fill="#013132"/><path d="M 177.83 161.67000000000002 A 16.17 16.17 0 0 0 194 145.5 L 177.83 145.5L177.83 161.67000000000002" fill="#7cb4c1"/><rect x="193.99979999999996" y="129.33319999999998" width="32.333299999999994" height="32.333299999999994" fill="#ffffff"/><rect x="194" y="129.33" width="16.17" height="16.17" fill="#7cb4c1"/><path d="M 194 145.5 A 16.17 16.17 0 0 1  210.17000000000002 129.33 L 210.17000000000002 145.5L194 145.5" fill="#013132"/><rect x="210.17" y="129.33" width="16.17" height="16.17" fill="#013132"/><path d="M 210.17 129.33 A 16.17 16.17 0 0 1 226.33999999999997 145.5 L 210.17 145.5L210.17 129.33" fill="#013132"/><rect x="194" y="145.5" width="16.17" height="16.17" fill="#013132"/><path d="M 194 145.5 A 16.17 16.17 0 0 0 210.17000000000002 161.67000000000002 L 210.17000000000002 145.5L194 145.5" fill="#013132"/><rect x="210.17" y="145.5" width="16.17" height="16.17" fill="#013132"/><path d="M 210.17 161.67000000000002 A 16.17 16.17 0 0 0 226.33999999999997 145.5 L 210.17 145.5L210.17 161.67000000000002" fill="#013132"/><rect x="226.33" y="129.33" width="32.33" height="32.33" fill="#013132"/><path d="M 226.33 161.66000000000003 A 32.33 32.33 0 0 1  258.66 129.33 L 226.33 161.66000000000003 A 32.33 32.33 0 0 0 258.66 129.33" fill="#013132"/><rect x="258.67" y="129.33" width="32.33" height="32.33" fill="#013132"/><rect x="258.67" y="129.33" width="32.33" height="32.33" fill="#013132"/><rect x="290.99969999999996" y="129.33319999999998" width="32.333299999999994" height="32.333299999999994" fill="#ffffff"/><rect x="291" y="129.33" width="16.17" height="16.17" fill="#7cb4c1"/><path d="M 291 129.33 A 16.17 16.17 0 0 1 307.17 145.5 L 291 145.5L291 129.33" fill="#013132"/><rect x="307.17" y="129.33" width="16.17" height="16.17" fill="#7cb4c1"/><path d="M 307.17 145.5 A 16.17 16.17 0 0 1  323.34000000000003 129.33 L 323.34000000000003 145.5L307.17 145.5" fill="#013132"/><rect x="291" y="145.5" width="16.17" height="16.17" fill="#7cb4c1"/><path d="M 291 161.67000000000002 A 16.17 16.17 0 0 0 307.17 145.5 L 291 145.5L291 161.67000000000002" fill="#013132"/><rect x="307.17" y="145.5" width="16.17" height="16.17" fill="#013132"/><path d="M 307.17 145.5 A 16.17 16.17 0 0 0 323.34000000000003 161.67000000000002 L 323.34000000000003 145.5L307.17 145.5" fill="#013132"/><rect x="323.33" y="129.33" width="32.33" height="32.33" fill="#013132"/><path d="M 323.33 129.33 A 32.33 32.33 0 0 1 355.65999999999997 161.66000000000003 L 323.33 161.66000000000003L323.33 129.33" fill="#013132"/><rect x="355.6662999999999" y="129.33319999999998" width="32.333299999999994" height="32.333299999999994" fill="#ffffff"/><rect x="355.67" y="129.33" width="16.17" height="16.17" fill="#013132"/><polygon points="371.84000000000003,129.33 371.84000000000003,145.5 355.67,145.5" fill="#013132"/><rect x="371.83" y="129.33" width="16.17" height="16.17" fill="#013132"/><polygon points="371.83,129.33 388,145.5 371.83,145.5" fill="#013132"/><rect x="355.67" y="145.5" width="16.17" height="16.17" fill="#7cb4c1"/><polygon points="355.67,145.5 371.84000000000003,145.5 371.84000000000003,161.67000000000002" fill="#7cb4c1"/><rect x="371.83" y="145.5" width="16.17" height="16.17" fill="#013132"/><polygon points="371.83,145.5 388,145.5 371.83,161.67000000000002" fill="#013132"/><rect x="387.99959999999993" y="129.33319999999998" width="32.333299999999994" height="32.333299999999994" fill="#ffffff"/><rect x="388" y="129.33" width="16.17" height="16.17" fill="#013132"/><polygon points="404.17,129.33 404.17,145.5 388,145.5" fill="#013132"/><rect x="404.17" y="129.33" width="16.17" height="16.17" fill="#7cb4c1"/><polygon points="404.17,129.33 420.34000000000003,145.5 404.17,145.5" fill="#013132"/><rect x="388" y="145.5" width="16.17" height="16.17" fill="#013132"/><polygon points="388,145.5 404.17,145.5 388,161.67000000000002" fill="#7cb4c1"/><rect x="404.17" y="145.5" width="16.17" height="16.17" fill="#7cb4c1"/><polygon points="404.17,145.5 420.34000000000003,145.5 420.34000000000003,161.67000000000002" fill="#7cb4c1"/><rect x="420.33289999999994" y="129.33319999999998" width="32.333299999999994" height="32.333299999999994" fill="#ffffff"/><rect x="420.33" y="129.33" width="16.17" height="16.17" fill="#7cb4c1"/><circle cx="428.41499999999996" cy="137.41500000000002" r="8.085" fill="#7cb4c1"/><rect x="436.5" y="129.33" width="16.17" height="16.17" fill="#013132"/><rect x="436.5" y="129.33" width="16.17" height="16.17" fill="#7cb4c1"/><rect x="420.33" y="145.5" width="16.17" height="16.17" fill="#7cb4c1"/><circle cx="428.41499999999996" cy="153.585" r="8.085" fill="#7cb4c1"/><rect x="436.5" y="145.5" width="16.17" height="16.17" fill="#7cb4c1"/><rect x="436.5" y="145.5" width="16.17" height="16.17" fill="#7cb4c1"/><rect x="452.67" y="129.33" width="32.33" height="32.33" fill="#7cb4c1"/><path d="M 452.67 129.33 A 32.33 32.33 0 0 0 485 161.66000000000003 L 485 129.33L452.67 129.33" fill="#7cb4c1"/><rect x="485" y="129.33" width="32.33" height="32.33" fill="#7cb4c1"/><path d="M 485 129.33 A 32.33 32.33 0 0 1  517.33 161.66000000000003 L 485 129.33 A 32.33 32.33 0 0 0 517.33 161.66000000000003" fill="#013132"/><rect x="517.3327999999999" y="129.33319999999998" width="32.333299999999994" height="32.333299999999994" fill="#ffffff"/><rect x="517.33" y="129.33" width="16.17" height="16.17" fill="#013132"/><polygon points="533.5,129.33 533.5,145.5 517.33,145.5" fill="#013132"/><rect x="533.5" y="129.33" width="16.17" height="16.17" fill="#013132"/><polygon points="533.5,129.33 549.67,145.5 533.5,145.5" fill="#013132"/><rect x="517.33" y="145.5" width="16.17" height="16.17" fill="#013132"/><polygon points="517.33,145.5 533.5,145.5 533.5,161.67000000000002" fill="#7cb4c1"/><rect x="533.5" y="145.5" width="16.17" height="16.17" fill="#013132"/><polygon points="533.5,145.5 549.67,145.5 533.5,161.67000000000002" fill="#013132"/><rect x="549.6660999999999" y="129.33319999999998" width="32.333299999999994" height="32.333299999999994" fill="#ffffff"/><rect x="549.67" y="129.33" width="16.17" height="16.17" fill="#7cb4c1"/><polygon points="565.8399999999999,129.33 565.8399999999999,145.5 549.67,145.5" fill="#7cb4c1"/><rect x="565.83" y="129.33" width="16.17" height="16.17" fill="#013132"/><polygon points="565.83,129.33 582,145.5 565.83,145.5" fill="#7cb4c1"/><rect x="549.67" y="145.5" width="16.17" height="16.17" fill="#013132"/><polygon points="549.67,145.5 565.8399999999999,145.5 549.67,161.67000000000002" fill="#7cb4c1"/><rect x="565.83" y="145.5" width="16.17" height="16.17" fill="#013132"/><polygon points="565.83,145.5 582,145.5 582,161.67000000000002" fill="#013132"/><rect x="582" y="129.33" width="32.33" height="32.33" fill="#7cb4c1"/><path d="M 582 161.66000000000003 A 32.33 32.33 0 0 1  614.33 129.33 L 582 161.66000000000003 A 32.33 32.33 0 0 0 614.33 129.33" fill="#7cb4c1"/><rect x="614.33" y="129.33" width="32.33" height="32.33" fill="#7cb4c1"/><polygon points="614.33,129.33 646.6600000000001,129.33 614.33,161.66000000000003" fill="#013132"/><rect x="0" y="161.67" width="32.33" height="32.33" fill="#7cb4c1"/><polygon points="0,161.67 32.33,161.67 32.33,194" fill="#013132"/><rect x="32.333299999999994" y="161.66649999999998" width="32.333299999999994" height="32.333299999999994" fill="#ffffff"/><rect x="32.33" y="161.67" width="16.17" height="16.17" fill="#013132"/><path d="M 32.33 177.83999999999997 A 16.17 16.17 0 0 1 48.5 161.67 L 48.5 165.71249999999998 A 12.127500000000001 12.127500000000001 0 0 0 36.3725 177.83999999999997" fill="#7cb4c1"/><rect x="48.5" y="161.67" width="16.17" height="16.17" fill="#7cb4c1"/><path d="M 48.5 161.67 A 16.17 16.17 0 0 1 64.67 177.83999999999997 L 60.6275 177.83999999999997 A 12.127500000000001 12.127500000000001 0 0 0 48.5 165.71249999999998" fill="#013132"/><rect x="32.33" y="177.83" width="16.17" height="16.17" fill="#013132"/><path d="M 32.33 177.83 A 16.17 16.17 0 0 0 48.5 194 L 48.5 189.9575 A 12.127500000000001 12.127500000000001 0 0 1 36.3725 177.83" fill="#013132"/><rect x="48.5" y="177.83" width="16.17" height="16.17" fill="#013132"/><path d="M 48.5 194 A 16.17 16.17 0 0 0 64.67 177.83 L 60.6275 177.83 A 12.127500000000001 12.127500000000001 0 0 1 48.5 189.9575" fill="#7cb4c1"/><rect x="64.67" y="161.67" width="32.33" height="32.33" fill="#013132"/><rect x="64.67" y="161.67" width="32.33" height="32.33" fill="#7cb4c1"/><rect x="96.99989999999998" y="161.66649999999998" width="32.333299999999994" height="32.333299999999994" fill="#ffffff"/><rect x="97" y="161.67" width="16.17" height="16.17" fill="#7cb4c1"/><circle cx="105.08500000000001" cy="169.755" r="8.085" fill="#013132"/><rect x="113.17" y="161.67" width="16.17" height="16.17" fill="#013132"/><rect x="113.17" y="161.67" width="16.17" height="16.17" fill="#7cb4c1"/><rect x="97" y="177.83" width="16.17" height="16.17" fill="#7cb4c1"/><circle cx="105.08500000000001" cy="185.91500000000002" r="8.085" fill="#013132"/><rect x="113.17" y="177.83" width="16.17" height="16.17" fill="#7cb4c1"/><rect x="113.17" y="177.83" width="16.17" height="16.17" fill="#7cb4c1"/><rect x="129.33" y="161.67" width="32.33" height="32.33" fill="#7cb4c1"/><rect x="129.33" y="161.67" width="32.33" height="32.33" fill="#7cb4c1"/><rect x="161.66649999999998" y="161.66649999999998" width="32.333299999999994" height="32.333299999999994" fill="#ffffff"/><rect x="161.67" y="161.67" width="16.17" height="16.17" fill="#013132"/><path d="M 161.67 177.83999999999997 A 16.17 16.17 0 0 0 177.83999999999997 161.67 L 161.67 161.67L161.67 177.83999999999997" fill="#013132"/><rect x="177.83" y="161.67" width="16.17" height="16.17" fill="#7cb4c1"/><path d="M 177.83 161.67 A 16.17 16.17 0 0 0 194 177.83999999999997 L 194 161.67L177.83 161.67" fill="#7cb4c1"/><rect x="161.67" y="177.83" width="16.17" height="16.17" fill="#013132"/><path d="M 161.67 177.83 A 16.17 16.17 0 0 1 177.83999999999997 194 L 161.67 194L161.67 177.83" fill="#013132"/><rect x="177.83" y="177.83" width="16.17" height="16.17" fill="#013132"/><path d="M 177.83 194 A 16.17 16.17 0 0 1  194 177.83 L 194 194L177.83 194" fill="#7cb4c1"/><rect x="193.99979999999996" y="161.66649999999998" width="32.333299999999994" height="32.333299999999994" fill="#ffffff"/><rect x="194" y="161.67" width="16.17" height="16.17" fill="#013132"/><circle cx="202.085" cy="169.755" r="8.085" fill="#013132"/><rect x="210.17" y="161.67" width="16.17" height="16.17" fill="#7cb4c1"/><rect x="210.17" y="161.67" width="16.17" height="16.17" fill="#013132"/><rect x="194" y="177.83" width="16.17" height="16.17" fill="#7cb4c1"/><circle cx="202.085" cy="185.91500000000002" r="8.085" fill="#7cb4c1"/><rect x="210.17" y="177.83" width="16.17" height="16.17" fill="#013132"/><rect x="210.17" y="177.83" width="16.17" height="16.17" fill="#7cb4c1"/><rect x="226.33309999999994" y="161.66649999999998" width="32.333299999999994" height="32.333299999999994" fill="#ffffff"/><rect x="226.33" y="161.67" width="16.17" height="16.17" fill="#013132"/><path d="M 226.33 177.83999999999997 A 16.17 16.17 0 0 1  242.5 161.67 L 242.5 177.83999999999997L226.33 177.83999999999997" fill="#7cb4c1"/><rect x="242.5" y="161.67" width="16.17" height="16.17" fill="#013132"/><path d="M 242.5 161.67 A 16.17 16.17 0 0 1 258.67 177.83999999999997 L 242.5 177.83999999999997L242.5 161.67" fill="#7cb4c1"/><rect x="226.33" y="177.83" width="16.17" height="16.17" fill="#7cb4c1"/><path d="M 226.33 177.83 A 16.17 16.17 0 0 0 242.5 194 L 242.5 177.83L226.33 177.83" fill="#7cb4c1"/><rect x="242.5" y="177.83" width="16.17" height="16.17" fill="#7cb4c1"/><path d="M 242.5 194 A 16.17 16.17 0 0 0 258.67 177.83 L 242.5 177.83L242.5 194" fill="#7cb4c1"/><rect x="258.67" y="161.67" width="32.33" height="32.33" fill="#013132"/><polygon points="258.67,161.67 291,161.67 258.67,194" fill="#013132"/><rect x="291" y="161.67" width="32.33" height="32.33" fill="#7cb4c1"/><path d="M 291 161.67 A 32.33 32.33 0 0 0 323.33 194 L 323.33 161.67L291 161.67" fill="#7cb4c1"/><rect x="323.33299999999997" y="161.66649999999998" width="32.333299999999994" height="32.333299999999994" fill="#ffffff"/><rect x="323.33" y="161.67" width="16.17" height="16.17" fill="#013132"/><path d="M 323.33 177.83999999999997 A 16.17 16.17 0 0 1  339.5 161.67 L 339.5 177.83999999999997L323.33 177.83999999999997" fill="#7cb4c1"/><rect x="339.5" y="161.67" width="16.17" height="16.17" fill="#7cb4c1"/><path d="M 339.5 161.67 A 16.17 16.17 0 0 1 355.67 177.83999999999997 L 339.5 177.83999999999997L339.5 161.67" fill="#013132"/><rect x="323.33" y="177.83" width="16.17" height="16.17" fill="#7cb4c1"/><path d="M 323.33 177.83 A 16.17 16.17 0 0 0 339.5 194 L 339.5 177.83L323.33 177.83" fill="#013132"/><rect x="339.5" y="177.83" width="16.17" height="16.17" fill="#7cb4c1"/><path d="M 339.5 194 A 16.17 16.17 0 0 0 355.67 177.83 L 339.5 177.83L339.5 194" fill="#7cb4c1"/><rect x="355.6662999999999" y="161.66649999999998" width="32.333299999999994" height="32.333299999999994" fill="#ffffff"/><rect x="355.67" y="161.67" width="16.17" height="16.17" fill="#013132"/><path d="M 355.67 161.67 A 16.17 16.17 0 0 0 371.84000000000003 177.83999999999997 L 371.84000000000003 161.67L355.67 161.67" fill="#013132"/><rect x="371.83" y="161.67" width="16.17" height="16.17" fill="#7cb4c1"/><path d="M 371.83 177.83999999999997 A 16.17 16.17 0 0 0 388 161.67 L 371.83 161.67L371.83 177.83999999999997" fill="#013132"/><rect x="355.67" y="177.83" width="16.17" height="16.17" fill="#7cb4c1"/><path d="M 355.67 194 A 16.17 16.17 0 0 1  371.84000000000003 177.83 L 371.84000000000003 194L355.67 194" fill="#013132"/><rect x="371.83" y="177.83" width="16.17" height="16.17" fill="#7cb4c1"/><path d="M 371.83 177.83 A 16.17 16.17 0 0 1 388 194 L 371.83 194L371.83 177.83" fill="#7cb4c1"/><rect x="388" y="161.67" width="32.33" height="32.33" fill="#013132"/><path d="M 388 161.67 A 32.33 32.33 0 0 1 420.33 194 L 388 194L388 161.67" fill="#013132"/><rect x="420.33" y="161.67" width="32.33" height="32.33" fill="#7cb4c1"/><polygon points="420.33,161.67 452.65999999999997,194 420.33,194" fill="#7cb4c1"/><rect x="452.6661999999999" y="161.66649999999998" width="32.333299999999994" height="32.333299999999994" fill="#ffffff"/><rect x="452.67" y="161.67" width="16.17" height="16.17" fill="#013132"/><polygon points="468.84000000000003,161.67 468.84000000000003,177.83999999999997 452.67,177.83999999999997" fill="#7cb4c1"/><rect x="468.83" y="161.67" width="16.17" height="16.17" fill="#7cb4c1"/><polygon points="468.83,161.67 485,161.67 468.83,177.83999999999997" fill="#7cb4c1"/><rect x="452.67" y="177.83" width="16.17" height="16.17" fill="#7cb4c1"/><polygon points="452.67,177.83 468.84000000000003,177.83 468.84000000000003,194" fill="#7cb4c1"/><rect x="468.83" y="177.83" width="16.17" height="16.17" fill="#013132"/><polygon points="468.83,177.83 485,194 468.83,194" fill="#013132"/><rect x="484.9994999999999" y="161.66649999999998" width="32.333299999999994" height="32.333299999999994" fill="#ffffff"/><rect x="485" y="161.67" width="16.17" height="16.17" fill="#7cb4c1"/><path d="M 485 161.67 A 16.17 16.17 0 0 1 501.17 177.83999999999997 L 485 177.83999999999997L485 161.67" fill="#7cb4c1"/><rect x="501.17" y="161.67" width="16.17" height="16.17" fill="#013132"/><path d="M 501.17 177.83999999999997 A 16.17 16.17 0 0 1  517.34 161.67 L 517.34 177.83999999999997L501.17 177.83999999999997" fill="#7cb4c1"/><rect x="485" y="177.83" width="16.17" height="16.17" fill="#013132"/><path d="M 485 194 A 16.17 16.17 0 0 0 501.17 177.83 L 485 177.83L485 194" fill="#013132"/><rect x="501.17" y="177.83" width="16.17" height="16.17" fill="#7cb4c1"/><path d="M 501.17 177.83 A 16.17 16.17 0 0 0 517.34 194 L 517.34 177.83L501.17 177.83" fill="#7cb4c1"/><rect x="517.33" y="161.67" width="32.33" height="32.33" fill="#7cb4c1"/><path d="M 517.33 194 A 32.33 32.33 0 0 1  549.6600000000001 161.67 L 517.33 194 A 32.33 32.33 0 0 0 549.6600000000001 161.67" fill="#013132"/><rect x="549.6660999999999" y="161.66649999999998" width="32.333299999999994" height="32.333299999999994" fill="#ffffff"/><rect x="549.67" y="161.67" width="16.17" height="16.17" fill="#013132"/><path d="M 549.67 177.83999999999997 A 16.17 16.17 0 0 1  565.8399999999999 161.67 L 565.8399999999999 177.83999999999997L549.67 177.83999999999997" fill="#7cb4c1"/><rect x="565.83" y="161.67" width="16.17" height="16.17" fill="#7cb4c1"/><path d="M 565.83 161.67 A 16.17 16.17 0 0 1 582 177.83999999999997 L 565.83 177.83999999999997L565.83 161.67" fill="#013132"/><rect x="549.67" y="177.83" width="16.17" height="16.17" fill="#7cb4c1"/><path d="M 549.67 177.83 A 16.17 16.17 0 0 0 565.8399999999999 194 L 565.8399999999999 177.83L549.67 177.83" fill="#7cb4c1"/><rect x="565.83" y="177.83" width="16.17" height="16.17" fill="#7cb4c1"/><path d="M 565.83 194 A 16.17 16.17 0 0 0 582 177.83 L 565.83 177.83L565.83 194" fill="#013132"/><rect x="581.9993999999999" y="161.66649999999998" width="32.333299999999994" height="32.333299999999994" fill="#ffffff"/><rect x="582" y="161.67" width="16.17" height="16.17" fill="#013132"/><path d="M 582 177.83999999999997 A 16.17 16.17 0 0 0 598.17 161.67 L 582 161.67L582 177.83999999999997" fill="#013132"/><rect x="598.17" y="161.67" width="16.17" height="16.17" fill="#7cb4c1"/><path d="M 598.17 161.67 A 16.17 16.17 0 0 0 614.3399999999999 177.83999999999997 L 614.3399999999999 161.67L598.17 161.67" fill="#013132"/><rect x="582" y="177.83" width="16.17" height="16.17" fill="#7cb4c1"/><path d="M 582 177.83 A 16.17 16.17 0 0 1 598.17 194 L 582 194L582 177.83" fill="#013132"/><rect x="598.17" y="177.83" width="16.17" height="16.17" fill="#7cb4c1"/><path d="M 598.17 194 A 16.17 16.17 0 0 1  614.3399999999999 177.83 L 614.3399999999999 194L598.17 194" fill="#013132"/><rect x="614.33" y="161.67" width="32.33" height="32.33" fill="#7cb4c1"/><rect x="614.33" y="161.67" width="32.33" height="32.33" fill="#7cb4c1"/><rect x="0" y="193.99979999999996" width="32.333299999999994" height="32.333299999999994" fill="#ffffff"/><rect x="0" y="194" width="16.17" height="16.17" fill="#013132"/><path d="M 0 210.17000000000002 A 16.17 16.17 0 0 1  16.17 194 L 16.17 210.17000000000002L0 210.17000000000002" fill="#013132"/><rect x="16.17" y="194" width="16.17" height="16.17" fill="#7cb4c1"/><path d="M 16.17 194 A 16.17 16.17 0 0 1 32.34 210.17000000000002 L 16.17 210.17000000000002L16.17 194" fill="#013132"/><rect x="0" y="210.17" width="16.17" height="16.17" fill="#7cb4c1"/><path d="M 0 210.17 A 16.17 16.17 0 0 0 16.17 226.33999999999997 L 16.17 210.17L0 210.17" fill="#7cb4c1"/><rect x="16.17" y="210.17" width="16.17" height="16.17" fill="#7cb4c1"/><path d="M 16.17 226.33999999999997 A 16.17 16.17 0 0 0 32.34 210.17 L 16.17 210.17L16.17 226.33999999999997" fill="#013132"/><rect x="32.33" y="194" width="32.33" height="32.33" fill="#7cb4c1"/><rect x="32.33" y="194" width="32.33" height="32.33" fill="#7cb4c1"/><rect x="64.67" y="194" width="32.33" height="32.33" fill="#013132"/><path d="M 64.67 226.32999999999998 A 32.33 32.33 0 0 1  97 194 L 64.67 226.32999999999998 A 32.33 32.33 0 0 0 97 194" fill="#013132"/><rect x="97" y="194" width="32.33" height="32.33" fill="#013132"/><rect x="97" y="194" width="32.33" height="32.33" fill="#7cb4c1"/><rect x="129.33" y="194" width="32.33" height="32.33" fill="#013132"/><path d="M 129.33 226.32999999999998 A 32.33 32.33 0 0 0 161.66000000000003 194 L 129.33 194L129.33 226.32999999999998" fill="#7cb4c1"/><rect x="161.66649999999998" y="193.99979999999996" width="32.333299999999994" height="32.333299999999994" fill="#ffffff"/><rect x="161.67" y="194" width="16.17" height="16.17" fill="#7cb4c1"/><path d="M 161.67 210.17000000000002 A 16.17 16.17 0 0 0 177.83999999999997 194 L 161.67 194L161.67 210.17000000000002" fill="#7cb4c1"/><rect x="177.83" y="194" width="16.17" height="16.17" fill="#013132"/><path d="M 177.83 194 A 16.17 16.17 0 0 0 194 210.17000000000002 L 194 194L177.83 194" fill="#013132"/><rect x="161.67" y="210.17" width="16.17" height="16.17" fill="#7cb4c1"/><path d="M 161.67 210.17 A 16.17 16.17 0 0 1 177.83999999999997 226.33999999999997 L 161.67 226.33999999999997L161.67 210.17" fill="#7cb4c1"/><rect x="177.83" y="210.17" width="16.17" height="16.17" fill="#013132"/><path d="M 177.83 226.33999999999997 A 16.17 16.17 0 0 1  194 210.17 L 194 226.33999999999997L177.83 226.33999999999997" fill="#7cb4c1"/><rect x="194" y="194" width="32.33" height="32.33" fill="#013132"/><polygon points="194,194 226.32999999999998,226.32999999999998 194,226.32999999999998" fill="#013132"/><rect x="226.33" y="194" width="32.33" height="32.33" fill="#7cb4c1"/><polygon points="258.66,194 258.66,226.32999999999998 226.33,226.32999999999998" fill="#013132"/><rect x="258.66639999999995" y="193.99979999999996" width="32.333299999999994" height="32.333299999999994" fill="#ffffff"/><rect x="258.67" y="194" width="16.17" height="16.17" fill="#013132"/><polygon points="274.84000000000003,194 274.84000000000003,210.17000000000002 258.67,210.17000000000002" fill="#013132"/><rect x="274.83" y="194" width="16.17" height="16.17" fill="#7cb4c1"/><polygon points="274.83,194 291,210.17000000000002 274.83,210.17000000000002" fill="#7cb4c1"/><rect x="258.67" y="210.17" width="16.17" height="16.17" fill="#013132"/><polygon points="258.67,210.17 274.84000000000003,210.17 258.67,226.33999999999997" fill="#7cb4c1"/><rect x="274.83" y="210.17" width="16.17" height="16.17" fill="#013132"/><polygon points="274.83,210.17 291,210.17 291,226.33999999999997" fill="#013132"/><rect x="291" y="194" width="32.33" height="32.33" fill="#7cb4c1"/><path d="M 291 226.32999999999998 A 32.33 32.33 0 0 0 323.33 194 L 291 194L291 226.32999999999998" fill="#013132"/><rect x="323.33" y="194" width="32.33" height="32.33" fill="#7cb4c1"/><path d="M 323.33 226.32999999999998 A 32.33 32.33 0 0 0 355.65999999999997 194 L 323.33 194L323.33 226.32999999999998" fill="#013132"/><rect x="355.67" y="194" width="32.33" height="32.33" fill="#013132"/><rect x="355.67" y="194" width="32.33" height="32.33" fill="#7cb4c1"/><rect x="387.99959999999993" y="193.99979999999996" width="32.333299999999994" height="32.333299999999994" fill="#ffffff"/><rect x="388" y="194" width="16.17" height="16.17" fill="#013132"/><path d="M 388 210.17000000000002 A 16.17 16.17 0 0 0 404.17 194 L 388 194L388 210.17000000000002" fill="#013132"/><rect x="404.17" y="194" width="16.17" height="16.17" fill="#013132"/><path d="M 404.17 194 A 16.17 16.17 0 0 0 420.34000000000003 210.17000000000002 L 420.34000000000003 194L404.17 194" fill="#7cb4c1"/><rect x="388" y="210.17" width="16.17" height="16.17" fill="#013132"/><path d="M 388 210.17 A 16.17 16.17 0 0 1 404.17 226.33999999999997 L 388 226.33999999999997L388 210.17" fill="#013132"/><rect x="404.17" y="210.17" width="16.17" height="16.17" fill="#7cb4c1"/><path d="M 404.17 226.33999999999997 A 16.17 16.17 0 0 1  420.34000000000003 210.17 L 420.34000000000003 226.33999999999997L404.17 226.33999999999997" fill="#013132"/><rect x="420.33289999999994" y="193.99979999999996" width="32.333299999999994" height="32.333299999999994" fill="#ffffff"/><rect x="420.33" y="194" width="16.17" height="16.17" fill="#7cb4c1"/><circle cx="428.41499999999996" cy="202.085" r="8.085" fill="#7cb4c1"/><rect x="436.5" y="194" width="16.17" height="16.17" fill="#7cb4c1"/><rect x="436.5" y="194" width="16.17" height="16.17" fill="#7cb4c1"/><rect x="420.33" y="210.17" width="16.17" height="16.17" fill="#013132"/><circle cx="428.41499999999996" cy="218.255" r="8.085" fill="#7cb4c1"/><rect x="436.5" y="210.17" width="16.17" height="16.17" fill="#013132"/><rect x="436.5" y="210.17" width="16.17" height="16.17" fill="#7cb4c1"/><rect x="452.6661999999999" y="193.99979999999996" width="32.333299999999994" height="32.333299999999994" fill="#ffffff"/><rect x="452.67" y="194" width="16.17" height="16.17" fill="#7cb4c1"/><path d="M 452.67 210.17000000000002 A 16.17 16.17 0 0 0 468.84000000000003 194 L 452.67 194L452.67 210.17000000000002" fill="#013132"/><rect x="468.83" y="194" width="16.17" height="16.17" fill="#013132"/><path d="M 468.83 194 A 16.17 16.17 0 0 0 485 210.17000000000002 L 485 194L468.83 194" fill="#7cb4c1"/><rect x="452.67" y="210.17" width="16.17" height="16.17" fill="#7cb4c1"/><path d="M 452.67 210.17 A 16.17 16.17 0 0 1 468.84000000000003 226.33999999999997 L 452.67 226.33999999999997L452.67 210.17" fill="#013132"/><rect x="468.83" y="210.17" width="16.17" height="16.17" fill="#7cb4c1"/><path d="M 468.83 226.33999999999997 A 16.17 16.17 0 0 1  485 210.17 L 485 226.33999999999997L468.83 226.33999999999997" fill="#013132"/><rect x="484.9994999999999" y="193.99979999999996" width="32.333299999999994" height="32.333299999999994" fill="#ffffff"/><rect x="485" y="194" width="16.17" height="16.17" fill="#013132"/><path d="M 485 210.17000000000002 A 16.17 16.17 0 0 1 501.17 194 L 501.17 198.0425 A 12.127500000000001 12.127500000000001 0 0 0 489.0425 210.17000000000002" fill="#013132"/><rect x="501.17" y="194" width="16.17" height="16.17" fill="#013132"/><path d="M 501.17 194 A 16.17 16.17 0 0 1 517.34 210.17000000000002 L 513.2975 210.17000000000002 A 12.127500000000001 12.127500000000001 0 0 0 501.17 198.0425" fill="#013132"/><rect x="485" y="210.17" width="16.17" height="16.17" fill="#7cb4c1"/><path d="M 485 210.17 A 16.17 16.17 0 0 0 501.17 226.33999999999997 L 501.17 222.29749999999999 A 12.127500000000001 12.127500000000001 0 0 1 489.0425 210.17" fill="#7cb4c1"/><rect x="501.17" y="210.17" width="16.17" height="16.17" fill="#013132"/><path d="M 501.17 226.33999999999997 A 16.17 16.17 0 0 0 517.34 210.17 L 513.2975 210.17 A 12.127500000000001 12.127500000000001 0 0 1 501.17 222.29749999999999" fill="#013132"/><rect x="517.33" y="194" width="32.33" height="32.33" fill="#013132"/><path d="M 517.33 194 A 32.33 32.33 0 0 0 549.6600000000001 226.32999999999998 L 549.6600000000001 194L517.33 194" fill="#7cb4c1"/><rect x="549.67" y="194" width="32.33" height="32.33" fill="#013132"/><rect x="549.67" y="194" width="32.33" height="32.33" fill="#7cb4c1"/><rect x="582" y="194" width="32.33" height="32.33" fill="#013132"/><polygon points="582,194 614.33,194 614.33,226.32999999999998" fill="#7cb4c1"/><rect x="614.3326999999999" y="193.99979999999996" width="32.333299999999994" height="32.333299999999994" fill="#ffffff"/><rect x="614.33" y="194" width="16.17" height="16.17" fill="#013132"/><polygon points="630.5,194 630.5,210.17000000000002 614.33,210.17000000000002" fill="#013132"/><rect x="630.5" y="194" width="16.17" height="16.17" fill="#013132"/><polygon points="630.5,194 646.67,194 630.5,210.17000000000002" fill="#7cb4c1"/><rect x="614.33" y="210.17" width="16.17" height="16.17" fill="#013132"/><polygon points="614.33,210.17 630.5,210.17 630.5,226.33999999999997" fill="#7cb4c1"/><rect x="630.5" y="210.17" width="16.17" height="16.17" fill="#7cb4c1"/><polygon points="630.5,210.17 646.67,226.33999999999997 630.5,226.33999999999997" fill="#013132"/><rect x="0" y="226.33" width="32.33" height="32.33" fill="#7cb4c1"/><rect x="0" y="226.33" width="32.33" height="32.33" fill="#013132"/><rect x="32.333299999999994" y="226.33309999999994" width="32.333299999999994" height="32.333299999999994" fill="#ffffff"/><rect x="32.33" y="226.33" width="16.17" height="16.17" fill="#013132"/><path d="M 32.33 226.33 A 16.17 16.17 0 0 1 48.5 242.5 L 32.33 242.5L32.33 226.33" fill="#013132"/><rect x="48.5" y="226.33" width="16.17" height="16.17" fill="#013132"/><path d="M 48.5 242.5 A 16.17 16.17 0 0 1  64.67 226.33 L 64.67 242.5L48.5 242.5" fill="#7cb4c1"/><rect x="32.33" y="242.5" width="16.17" height="16.17" fill="#7cb4c1"/><path d="M 32.33 258.67 A 16.17 16.17 0 0 0 48.5 242.5 L 32.33 242.5L32.33 258.67" fill="#7cb4c1"/><rect x="48.5" y="242.5" width="16.17" height="16.17" fill="#013132"/><path d="M 48.5 242.5 A 16.17 16.17 0 0 0 64.67 258.67 L 64.67 242.5L48.5 242.5" fill="#013132"/><rect x="64.66659999999999" y="226.33309999999994" width="32.333299999999994" height="32.333299999999994" fill="#ffffff"/><rect x="64.67" y="226.33" width="16.17" height="16.17" fill="#7cb4c1"/><path d="M 64.67 242.5 A 16.17 16.17 0 0 1  80.84 226.33 L 80.84 242.5L64.67 242.5" fill="#013132"/><rect x="80.83" y="226.33" width="16.17" height="16.17" fill="#7cb4c1"/><path d="M 80.83 226.33 A 16.17 16.17 0 0 1 97 242.5 L 80.83 242.5L80.83 226.33" fill="#013132"/><rect x="64.67" y="242.5" width="16.17" height="16.17" fill="#013132"/><path d="M 64.67 242.5 A 16.17 16.17 0 0 0 80.84 258.67 L 80.84 242.5L64.67 242.5" fill="#013132"/><rect x="80.83" y="242.5" width="16.17" height="16.17" fill="#013132"/><path d="M 80.83 258.67 A 16.17 16.17 0 0 0 97 242.5 L 80.83 242.5L80.83 258.67" fill="#7cb4c1"/><rect x="97" y="226.33" width="32.33" height="32.33" fill="#7cb4c1"/><polygon points="97,226.33 129.32999999999998,226.33 97,258.66" fill="#013132"/><rect x="129.33319999999998" y="226.33309999999994" width="32.333299999999994" height="32.333299999999994" fill="#ffffff"/><rect x="129.33" y="226.33" width="16.17" height="16.17" fill="#7cb4c1"/><path d="M 129.33 226.33 A 16.17 16.17 0 0 0 145.5 242.5 L 145.5 226.33L129.33 226.33" fill="#7cb4c1"/><rect x="145.5" y="226.33" width="16.17" height="16.17" fill="#013132"/><path d="M 145.5 242.5 A 16.17 16.17 0 0 0 161.67000000000002 226.33 L 145.5 226.33L145.5 242.5" fill="#7cb4c1"/><rect x="129.33" y="242.5" width="16.17" height="16.17" fill="#013132"/><path d="M 129.33 258.67 A 16.17 16.17 0 0 1  145.5 242.5 L 145.5 258.67L129.33 258.67" fill="#7cb4c1"/><rect x="145.5" y="242.5" width="16.17" height="16.17" fill="#013132"/><path d="M 145.5 242.5 A 16.17 16.17 0 0 1 161.67000000000002 258.67 L 145.5 258.67L145.5 242.5" fill="#7cb4c1"/><rect x="161.66649999999998" y="226.33309999999994" width="32.333299999999994" height="32.333299999999994" fill="#ffffff"/><rect x="161.67" y="226.33" width="16.17" height="16.17" fill="#013132"/><path d="M 161.67 226.33 A 16.17 16.17 0 0 0 177.83999999999997 242.5 L 177.83999999999997 226.33L161.67 226.33" fill="#7cb4c1"/><rect x="177.83" y="226.33" width="16.17" height="16.17" fill="#7cb4c1"/><path d="M 177.83 242.5 A 16.17 16.17 0 0 0 194 226.33 L 177.83 226.33L177.83 242.5" fill="#7cb4c1"/><rect x="161.67" y="242.5" width="16.17" height="16.17" fill="#7cb4c1"/><path d="M 161.67 258.67 A 16.17 16.17 0 0 1  177.83999999999997 242.5 L 177.83999999999997 258.67L161.67 258.67" fill="#013132"/><rect x="177.83" y="242.5" width="16.17" height="16.17" fill="#013132"/><path d="M 177.83 242.5 A 16.17 16.17 0 0 1 194 258.67 L 177.83 258.67L177.83 242.5" fill="#7cb4c1"/><rect x="194" y="226.33" width="32.33" height="32.33" fill="#7cb4c1"/><rect x="194" y="226.33" width="32.33" height="32.33" fill="#013132"/><rect x="226.33" y="226.33" width="32.33" height="32.33" fill="#013132"/><rect x="226.33" y="226.33" width="32.33" height="32.33" fill="#7cb4c1"/><rect x="258.66639999999995" y="226.33309999999994" width="32.333299999999994" height="32.333299999999994" fill="#ffffff"/><rect x="258.67" y="226.33" width="16.17" height="16.17" fill="#7cb4c1"/><path d="M 258.67 242.5 A 16.17 16.17 0 0 0 274.84000000000003 226.33 L 258.67 226.33L258.67 242.5" fill="#7cb4c1"/><rect x="274.83" y="226.33" width="16.17" height="16.17" fill="#013132"/><path d="M 274.83 226.33 A 16.17 16.17 0 0 0 291 242.5 L 291 226.33L274.83 226.33" fill="#013132"/><rect x="258.67" y="242.5" width="16.17" height="16.17" fill="#013132"/><path d="M 258.67 242.5 A 16.17 16.17 0 0 1 274.84000000000003 258.67 L 258.67 258.67L258.67 242.5" fill="#7cb4c1"/><rect x="274.83" y="242.5" width="16.17" height="16.17" fill="#7cb4c1"/><path d="M 274.83 258.67 A 16.17 16.17 0 0 1  291 242.5 L 291 258.67L274.83 258.67" fill="#7cb4c1"/><rect x="291" y="226.33" width="32.33" height="32.33" fill="#013132"/><polygon points="291,226.33 323.33,258.66 291,258.66" fill="#013132"/><rect x="323.33" y="226.33" width="32.33" height="32.33" fill="#7cb4c1"/><polygon points="323.33,226.33 355.65999999999997,226.33 323.33,258.66" fill="#7cb4c1"/><rect x="355.67" y="226.33" width="32.33" height="32.33" fill="#013132"/><polygon points="355.67,226.33 388,258.66 355.67,258.66" fill="#7cb4c1"/><rect x="387.99959999999993" y="226.33309999999994" width="32.333299999999994" height="32.333299999999994" fill="#ffffff"/><rect x="388" y="226.33" width="16.17" height="16.17" fill="#7cb4c1"/><polygon points="404.17,226.33 404.17,242.5 388,242.5" fill="#7cb4c1"/><rect x="404.17" y="226.33" width="16.17" height="16.17" fill="#7cb4c1"/><polygon points="404.17,226.33 420.34000000000003,242.5 404.17,242.5" fill="#7cb4c1"/><rect x="388" y="242.5" width="16.17" height="16.17" fill="#013132"/><polygon points="388,242.5 404.17,242.5 404.17,258.67" fill="#7cb4c1"/><rect x="404.17" y="242.5" width="16.17" height="16.17" fill="#7cb4c1"/><polygon points="404.17,242.5 420.34000000000003,242.5 404.17,258.67" fill="#013132"/><rect x="420.33289999999994" y="226.33309999999994" width="32.333299999999994" height="32.333299999999994" fill="#ffffff"/><rect x="420.33" y="226.33" width="16.17" height="16.17" fill="#7cb4c1"/><polygon points="436.5,226.33 436.5,242.5 420.33,242.5" fill="#013132"/><rect x="436.5" y="226.33" width="16.17" height="16.17" fill="#013132"/><polygon points="436.5,226.33 452.67,242.5 436.5,242.5" fill="#013132"/><rect x="420.33" y="242.5" width="16.17" height="16.17" fill="#7cb4c1"/><polygon points="420.33,242.5 436.5,242.5 436.5,258.67" fill="#013132"/><rect x="436.5" y="242.5" width="16.17" height="16.17" fill="#013132"/><polygon points="436.5,242.5 452.67,242.5 436.5,258.67" fill="#7cb4c1"/><rect x="452.6661999999999" y="226.33309999999994" width="32.333299999999994" height="32.333299999999994" fill="#ffffff"/><rect x="452.67" y="226.33" width="16.17" height="16.17" fill="#013132"/><path d="M 452.67 242.5 A 16.17 16.17 0 0 1  468.84000000000003 226.33 L 468.84000000000003 242.5L452.67 242.5" fill="#7cb4c1"/><rect x="468.83" y="226.33" width="16.17" height="16.17" fill="#7cb4c1"/><path d="M 468.83 226.33 A 16.17 16.17 0 0 1 485 242.5 L 468.83 242.5L468.83 226.33" fill="#013132"/><rect x="452.67" y="242.5" width="16.17" height="16.17" fill="#7cb4c1"/><path d="M 452.67 242.5 A 16.17 16.17 0 0 0 468.84000000000003 258.67 L 468.84000000000003 242.5L452.67 242.5" fill="#013132"/><rect x="468.83" y="242.5" width="16.17" height="16.17" fill="#013132"/><path d="M 468.83 258.67 A 16.17 16.17 0 0 0 485 242.5 L 468.83 242.5L468.83 258.67" fill="#013132"/><rect x="485" y="226.33" width="32.33" height="32.33" fill="#013132"/><rect x="485" y="226.33" width="32.33" height="32.33" fill="#7cb4c1"/><rect x="517.3327999999999" y="226.33309999999994" width="32.333299999999994" height="32.333299999999994" fill="#ffffff"/><rect x="517.33" y="226.33" width="16.17" height="16.17" fill="#013132"/><polygon points="533.5,226.33 533.5,242.5 517.33,242.5" fill="#7cb4c1"/><rect x="533.5" y="226.33" width="16.17" height="16.17" fill="#7cb4c1"/><polygon points="533.5,226.33 549.67,226.33 533.5,242.5" fill="#7cb4c1"/><rect x="517.33" y="242.5" width="16.17" height="16.17" fill="#013132"/><polygon points="517.33,242.5 533.5,242.5 533.5,258.67" fill="#7cb4c1"/><rect x="533.5" y="242.5" width="16.17" height="16.17" fill="#013132"/><polygon points="533.5,242.5 549.67,258.67 533.5,258.67" fill="#013132"/><rect x="549.67" y="226.33" width="32.33" height="32.33" fill="#013132"/><rect x="549.67" y="226.33" width="32.33" height="32.33" fill="#013132"/><rect x="582" y="226.33" width="32.33" height="32.33" fill="#7cb4c1"/><rect x="582" y="226.33" width="32.33" height="32.33" fill="#013132"/><rect x="614.33" y="226.33" width="32.33" height="32.33" fill="#7cb4c1"/><rect x="614.33" y="226.33" width="32.33" height="32.33" fill="#013132"/><rect x="0" y="258.66639999999995" width="32.333299999999994" height="32.333299999999994" fill="#ffffff"/><rect x="0" y="258.67" width="16.17" height="16.17" fill="#7cb4c1"/><path d="M 0 258.67 A 16.17 16.17 0 0 0 16.17 274.84000000000003 L 16.17 258.67L0 258.67" fill="#013132"/><rect x="16.17" y="258.67" width="16.17" height="16.17" fill="#013132"/><path d="M 16.17 274.84000000000003 A 16.17 16.17 0 0 0 32.34 258.67 L 16.17 258.67L16.17 274.84000000000003" fill="#7cb4c1"/><rect x="0" y="274.83" width="16.17" height="16.17" fill="#013132"/><path d="M 0 291 A 16.17 16.17 0 0 1  16.17 274.83 L 16.17 291L0 291" fill="#013132"/><rect x="16.17" y="274.83" width="16.17" height="16.17" fill="#7cb4c1"/><path d="M 16.17 274.83 A 16.17 16.17 0 0 1 32.34 291 L 16.17 291L16.17 274.83" fill="#7cb4c1"/><rect x="32.333299999999994" y="258.66639999999995" width="32.333299999999994" height="32.333299999999994" fill="#ffffff"/><rect x="32.33" y="258.67" width="16.17" height="16.17" fill="#7cb4c1"/><path d="M 32.33 274.84000000000003 A 16.17 16.17 0 0 1  48.5 258.67 L 48.5 274.84000000000003L32.33 274.84000000000003" fill="#7cb4c1"/><rect x="48.5" y="258.67" width="16.17" height="16.17" fill="#013132"/><path d="M 48.5 258.67 A 16.17 16.17 0 0 1 64.67 274.84000000000003 L 48.5 274.84000000000003L48.5 258.67" fill="#7cb4c1"/><rect x="32.33" y="274.83" width="16.17" height="16.17" fill="#7cb4c1"/><path d="M 32.33 274.83 A 16.17 16.17 0 0 0 48.5 291 L 48.5 274.83L32.33 274.83" fill="#013132"/><rect x="48.5" y="274.83" width="16.17" height="16.17" fill="#013132"/><path d="M 48.5 291 A 16.17 16.17 0 0 0 64.67 274.83 L 48.5 274.83L48.5 291" fill="#013132"/><rect x="64.67" y="258.67" width="32.33" height="32.33" fill="#7cb4c1"/><path d="M 64.67 258.67 A 32.33 32.33 0 0 0 97 291 L 97 258.67L64.67 258.67" fill="#013132"/><rect x="97" y="258.67" width="32.33" height="32.33" fill="#7cb4c1"/><path d="M 97 291 A 32.33 32.33 0 0 1  129.32999999999998 258.67 L 97 291 A 32.33 32.33 0 0 0 129.32999999999998 258.67" fill="#7cb4c1"/><rect x="129.33319999999998" y="258.66639999999995" width="32.333299999999994" height="32.333299999999994" fill="#ffffff"/><rect x="129.33" y="258.67" width="16.17" height="16.17" fill="#7cb4c1"/><polygon points="145.5,258.67 145.5,274.84000000000003 129.33,274.84000000000003" fill="#7cb4c1"/><rect x="145.5" y="258.67" width="16.17" height="16.17" fill="#013132"/><polygon points="145.5,258.67 161.67000000000002,258.67 145.5,274.84000000000003" fill="#7cb4c1"/><rect x="129.33" y="274.83" width="16.17" height="16.17" fill="#7cb4c1"/><polygon points="129.33,274.83 145.5,274.83 145.5,291" fill="#013132"/><rect x="145.5" y="274.83" width="16.17" height="16.17" fill="#013132"/><polygon points="145.5,274.83 161.67000000000002,291 145.5,291" fill="#7cb4c1"/><rect x="161.67" y="258.67" width="32.33" height="32.33" fill="#7cb4c1"/><rect x="161.67" y="258.67" width="32.33" height="32.33" fill="#013132"/><rect x="193.99979999999996" y="258.66639999999995" width="32.333299999999994" height="32.333299999999994" fill="#ffffff"/><rect x="194" y="258.67" width="16.17" height="16.17" fill="#7cb4c1"/><path d="M 194 274.84000000000003 A 16.17 16.17 0 0 1 210.17000000000002 258.67 L 210.17000000000002 262.71250000000003 A 12.127500000000001 12.127500000000001 0 0 0 198.0425 274.84000000000003" fill="#7cb4c1"/><rect x="210.17" y="258.67" width="16.17" height="16.17" fill="#7cb4c1"/><path d="M 210.17 258.67 A 16.17 16.17 0 0 1 226.33999999999997 274.84000000000003 L 222.29749999999999 274.84000000000003 A 12.127500000000001 12.127500000000001 0 0 0 210.17 262.71250000000003" fill="#013132"/><rect x="194" y="274.83" width="16.17" height="16.17" fill="#013132"/><path d="M 194 274.83 A 16.17 16.17 0 0 0 210.17000000000002 291 L 210.17000000000002 286.9575 A 12.127500000000001 12.127500000000001 0 0 1 198.0425 274.83" fill="#013132"/><rect x="210.17" y="274.83" width="16.17" height="16.17" fill="#7cb4c1"/><path d="M 210.17 291 A 16.17 16.17 0 0 0 226.33999999999997 274.83 L 222.29749999999999 274.83 A 12.127500000000001 12.127500000000001 0 0 1 210.17 286.9575" fill="#7cb4c1"/><rect x="226.33309999999994" y="258.66639999999995" width="32.333299999999994" height="32.333299999999994" fill="#ffffff"/><rect x="226.33" y="258.67" width="16.17" height="16.17" fill="#013132"/><polygon points="242.5,258.67 242.5,274.84000000000003 226.33,274.84000000000003" fill="#7cb4c1"/><rect x="242.5" y="258.67" width="16.17" height="16.17" fill="#013132"/><polygon points="242.5,258.67 258.67,274.84000000000003 242.5,274.84000000000003" fill="#013132"/><rect x="226.33" y="274.83" width="16.17" height="16.17" fill="#7cb4c1"/><polygon points="226.33,274.83 242.5,274.83 242.5,291" fill="#013132"/><rect x="242.5" y="274.83" width="16.17" height="16.17" fill="#013132"/><polygon points="242.5,274.83 258.67,274.83 242.5,291" fill="#013132"/><rect x="258.67" y="258.67" width="32.33" height="32.33" fill="#7cb4c1"/><polygon points="258.67,258.67 291,258.67 258.67,291" fill="#7cb4c1"/><rect x="291" y="258.67" width="32.33" height="32.33" fill="#013132"/><rect x="291" y="258.67" width="32.33" height="32.33" fill="#013132"/><rect x="323.33" y="258.67" width="32.33" height="32.33" fill="#013132"/><rect x="323.33" y="258.67" width="32.33" height="32.33" fill="#7cb4c1"/><rect x="355.6662999999999" y="258.66639999999995" width="32.333299999999994" height="32.333299999999994" fill="#ffffff"/><rect x="355.67" y="258.67" width="16.17" height="16.17" fill="#7cb4c1"/><path d="M 355.67 274.84000000000003 A 16.17 16.17 0 0 1 371.84000000000003 258.67 L 371.84000000000003 262.71250000000003 A 12.127500000000001 12.127500000000001 0 0 0 359.71250000000003 274.84000000000003" fill="#013132"/><rect x="371.83" y="258.67" width="16.17" height="16.17" fill="#013132"/><path d="M 371.83 258.67 A 16.17 16.17 0 0 1 388 274.84000000000003 L 383.9575 274.84000000000003 A 12.127500000000001 12.127500000000001 0 0 0 371.83 262.71250000000003" fill="#013132"/><rect x="355.67" y="274.83" width="16.17" height="16.17" fill="#7cb4c1"/><path d="M 355.67 274.83 A 16.17 16.17 0 0 0 371.84000000000003 291 L 371.84000000000003 286.9575 A 12.127500000000001 12.127500000000001 0 0 1 359.71250000000003 274.83" fill="#013132"/><rect x="371.83" y="274.83" width="16.17" height="16.17" fill="#7cb4c1"/><path d="M 371.83 291 A 16.17 16.17 0 0 0 388 274.83 L 383.9575 274.83 A 12.127500000000001 12.127500000000001 0 0 1 371.83 286.9575" fill="#013132"/><rect x="388" y="258.67" width="32.33" height="32.33" fill="#013132"/><polygon points="388,258.67 420.33,258.67 420.33,291" fill="#013132"/><rect x="420.33289999999994" y="258.66639999999995" width="32.333299999999994" height="32.333299999999994" fill="#ffffff"/><rect x="420.33" y="258.67" width="16.17" height="16.17" fill="#7cb4c1"/><polygon points="436.5,258.67 436.5,274.84000000000003 420.33,274.84000000000003" fill="#013132"/><rect x="436.5" y="258.67" width="16.17" height="16.17" fill="#013132"/><polygon points="436.5,258.67 452.67,274.84000000000003 436.5,274.84000000000003" fill="#013132"/><rect x="420.33" y="274.83" width="16.17" height="16.17" fill="#7cb4c1"/><polygon points="420.33,274.83 436.5,274.83 420.33,291" fill="#013132"/><rect x="436.5" y="274.83" width="16.17" height="16.17" fill="#013132"/><polygon points="436.5,274.83 452.67,274.83 452.67,291" fill="#7cb4c1"/><rect x="452.67" y="258.67" width="32.33" height="32.33" fill="#013132"/><polygon points="452.67,258.67 485,258.67 485,291" fill="#013132"/><rect x="484.9994999999999" y="258.66639999999995" width="32.333299999999994" height="32.333299999999994" fill="#ffffff"/><rect x="485" y="258.67" width="16.17" height="16.17" fill="#013132"/><path d="M 485 274.84000000000003 A 16.17 16.17 0 0 1 501.17 258.67 L 501.17 262.71250000000003 A 12.127500000000001 12.127500000000001 0 0 0 489.0425 274.84000000000003" fill="#7cb4c1"/><rect x="501.17" y="258.67" width="16.17" height="16.17" fill="#7cb4c1"/><path d="M 501.17 258.67 A 16.17 16.17 0 0 1 517.34 274.84000000000003 L 513.2975 274.84000000000003 A 12.127500000000001 12.127500000000001 0 0 0 501.17 262.71250000000003" fill="#013132"/><rect x="485" y="274.83" width="16.17" height="16.17" fill="#7cb4c1"/><path d="M 485 274.83 A 16.17 16.17 0 0 0 501.17 291 L 501.17 286.9575 A 12.127500000000001 12.127500000000001 0 0 1 489.0425 274.83" fill="#7cb4c1"/><rect x="501.17" y="274.83" width="16.17" height="16.17" fill="#013132"/><path d="M 501.17 291 A 16.17 16.17 0 0 0 517.34 274.83 L 513.2975 274.83 A 12.127500000000001 12.127500000000001 0 0 1 501.17 286.9575" fill="#013132"/><rect x="517.33" y="258.67" width="32.33" height="32.33" fill="#7cb4c1"/><rect x="517.33" y="258.67" width="32.33" height="32.33" fill="#7cb4c1"/><rect x="549.6660999999999" y="258.66639999999995" width="32.333299999999994" height="32.333299999999994" fill="#ffffff"/><rect x="549.67" y="258.67" width="16.17" height="16.17" fill="#013132"/><polygon points="565.8399999999999,258.67 565.8399999999999,274.84000000000003 549.67,274.84000000000003" fill="#7cb4c1"/><rect x="565.83" y="258.67" width="16.17" height="16.17" fill="#7cb4c1"/><polygon points="565.83,258.67 582,258.67 565.83,274.84000000000003" fill="#7cb4c1"/><rect x="549.67" y="274.83" width="16.17" height="16.17" fill="#013132"/><polygon points="549.67,274.83 565.8399999999999,274.83 565.8399999999999,291" fill="#013132"/><rect x="565.83" y="274.83" width="16.17" height="16.17" fill="#013132"/><polygon points="565.83,274.83 582,291 565.83,291" fill="#013132"/><rect x="582" y="258.67" width="32.33" height="32.33" fill="#7cb4c1"/><path d="M 582 291 A 32.33 32.33 0 0 1  614.33 258.67 L 582 291 A 32.33 32.33 0 0 0 614.33 258.67" fill="#7cb4c1"/><rect x="614.33" y="258.67" width="32.33" height="32.33" fill="#013132"/><polygon points="614.33,258.67 646.6600000000001,291 614.33,291" fill="#7cb4c1"/><rect x="0" y="290.99969999999996" width="32.333299999999994" height="32.333299999999994" fill="#ffffff"/><rect x="0" y="291" width="16.17" height="16.17" fill="#013132"/><polygon points="16.17,291 16.17,307.17 0,307.17" fill="#7cb4c1"/><rect x="16.17" y="291" width="16.17" height="16.17" fill="#013132"/><polygon points="16.17,291 32.34,307.17 16.17,307.17" fill="#013132"/><rect x="0" y="307.17" width="16.17" height="16.17" fill="#7cb4c1"/><polygon points="0,307.17 16.17,307.17 16.17,323.34000000000003" fill="#013132"/><rect x="16.17" y="307.17" width="16.17" height="16.17" fill="#013132"/><polygon points="16.17,307.17 32.34,307.17 16.17,323.34000000000003" fill="#013132"/><rect x="32.33" y="291" width="32.33" height="32.33" fill="#013132"/><path d="M 32.33 323.33 A 32.33 32.33 0 0 0 64.66 291 L 32.33 291L32.33 323.33" fill="#7cb4c1"/><rect x="64.66659999999999" y="290.99969999999996" width="32.333299999999994" height="32.333299999999994" fill="#ffffff"/><rect x="64.67" y="291" width="16.17" height="16.17" fill="#013132"/><polygon points="80.84,291 80.84,307.17 64.67,307.17" fill="#013132"/><rect x="80.83" y="291" width="16.17" height="16.17" fill="#013132"/><polygon points="80.83,291 97,291 80.83,307.17" fill="#013132"/><rect x="64.67" y="307.17" width="16.17" height="16.17" fill="#013132"/><polygon points="64.67,307.17 80.84,307.17 80.84,323.34000000000003" fill="#7cb4c1"/><rect x="80.83" y="307.17" width="16.17" height="16.17" fill="#013132"/><polygon points="80.83,307.17 97,323.34000000000003 80.83,323.34000000000003" fill="#7cb4c1"/><rect x="97" y="291" width="32.33" height="32.33" fill="#013132"/><path d="M 97 291 A 32.33 32.33 0 0 1  129.32999999999998 323.33 L 97 291 A 32.33 32.33 0 0 0 129.32999999999998 323.33" fill="#7cb4c1"/><rect x="129.33319999999998" y="290.99969999999996" width="32.333299999999994" height="32.333299999999994" fill="#ffffff"/><rect x="129.33" y="291" width="16.17" height="16.17" fill="#013132"/><path d="M 129.33 291 A 16.17 16.17 0 0 1 145.5 307.17 L 129.33 307.17L129.33 291" fill="#013132"/><rect x="145.5" y="291" width="16.17" height="16.17" fill="#7cb4c1"/><path d="M 145.5 307.17 A 16.17 16.17 0 0 1  161.67000000000002 291 L 161.67000000000002 307.17L145.5 307.17" fill="#7cb4c1"/><rect x="129.33" y="307.17" width="16.17" height="16.17" fill="#013132"/><path d="M 129.33 323.34000000000003 A 16.17 16.17 0 0 0 145.5 307.17 L 129.33 307.17L129.33 323.34000000000003" fill="#7cb4c1"/><rect x="145.5" y="307.17" width="16.17" height="16.17" fill="#7cb4c1"/><path d="M 145.5 307.17 A 16.17 16.17 0 0 0 161.67000000000002 323.34000000000003 L 161.67000000000002 307.17L145.5 307.17" fill="#7cb4c1"/><rect x="161.67" y="291" width="32.33" height="32.33" fill="#7cb4c1"/><polygon points="161.67,291 194,291 194,323.33" fill="#013132"/><rect x="194" y="291" width="32.33" height="32.33" fill="#013132"/><rect x="194" y="291" width="32.33" height="32.33" fill="#013132"/><rect x="226.33" y="291" width="32.33" height="32.33" fill="#7cb4c1"/><rect x="226.33" y="291" width="32.33" height="32.33" fill="#7cb4c1"/><rect x="258.66639999999995" y="290.99969999999996" width="32.333299999999994" height="32.333299999999994" fill="#ffffff"/><rect x="258.67" y="291" width="16.17" height="16.17" fill="#7cb4c1"/><circle cx="266.755" cy="299.085" r="8.085" fill="#7cb4c1"/><rect x="274.83" y="291" width="16.17" height="16.17" fill="#7cb4c1"/><rect x="274.83" y="291" width="16.17" height="16.17" fill="#013132"/><rect x="258.67" y="307.17" width="16.17" height="16.17" fill="#7cb4c1"/><circle cx="266.755" cy="315.255" r="8.085" fill="#013132"/><rect x="274.83" y="307.17" width="16.17" height="16.17" fill="#7cb4c1"/><rect x="274.83" y="307.17" width="16.17" height="16.17" fill="#013132"/><rect x="290.99969999999996" y="290.99969999999996" width="32.333299999999994" height="32.333299999999994" fill="#ffffff"/><rect x="291" y="291" width="16.17" height="16.17" fill="#013132"/><path d="M 291 307.17 A 16.17 16.17 0 0 0 307.17 291 L 291 291L291 307.17" fill="#7cb4c1"/><rect x="307.17" y="291" width="16.17" height="16.17" fill="#013132"/><path d="M 307.17 291 A 16.17 16.17 0 0 0 323.34000000000003 307.17 L 323.34000000000003 291L307.17 291" fill="#013132"/><rect x="291" y="307.17" width="16.17" height="16.17" fill="#7cb4c1"/><path d="M 291 307.17 A 16.17 16.17 0 0 1 307.17 323.34000000000003 L 291 323.34000000000003L291 307.17" fill="#7cb4c1"/><rect x="307.17" y="307.17" width="16.17" height="16.17" fill="#7cb4c1"/><path d="M 307.17 323.34000000000003 A 16.17 16.17 0 0 1  323.34000000000003 307.17 L 323.34000000000003 323.34000000000003L307.17 323.34000000000003" fill="#7cb4c1"/><rect x="323.33299999999997" y="290.99969999999996" width="32.333299999999994" height="32.333299999999994" fill="#ffffff"/><rect x="323.33" y="291" width="16.17" height="16.17" fill="#013132"/><path d="M 323.33 291 A 16.17 16.17 0 0 1 339.5 307.17 L 323.33 307.17L323.33 291" fill="#013132"/><rect x="339.5" y="291" width="16.17" height="16.17" fill="#013132"/><path d="M 339.5 307.17 A 16.17 16.17 0 0 1  355.67 291 L 355.67 307.17L339.5 307.17" fill="#013132"/><rect x="323.33" y="307.17" width="16.17" height="16.17" fill="#7cb4c1"/><path d="M 323.33 323.34000000000003 A 16.17 16.17 0 0 0 339.5 307.17 L 323.33 307.17L323.33 323.34000000000003" fill="#7cb4c1"/><rect x="339.5" y="307.17" width="16.17" height="16.17" fill="#013132"/><path d="M 339.5 307.17 A 16.17 16.17 0 0 0 355.67 323.34000000000003 L 355.67 307.17L339.5 307.17" fill="#7cb4c1"/><rect x="355.6662999999999" y="290.99969999999996" width="32.333299999999994" height="32.333299999999994" fill="#ffffff"/><rect x="355.67" y="291" width="16.17" height="16.17" fill="#013132"/><polygon points="371.84000000000003,291 371.84000000000003,307.17 355.67,307.17" fill="#013132"/><rect x="371.83" y="291" width="16.17" height="16.17" fill="#7cb4c1"/><polygon points="371.83,291 388,291 371.83,307.17" fill="#013132"/><rect x="355.67" y="307.17" width="16.17" height="16.17" fill="#7cb4c1"/><polygon points="355.67,307.17 371.84000000000003,307.17 371.84000000000003,323.34000000000003" fill="#7cb4c1"/><rect x="371.83" y="307.17" width="16.17" height="16.17" fill="#013132"/><polygon points="371.83,307.17 388,323.34000000000003 371.83,323.34000000000003" fill="#7cb4c1"/><rect x="388" y="291" width="32.33" height="32.33" fill="#7cb4c1"/><path d="M 388 291 A 32.33 32.33 0 0 0 420.33 323.33 L 420.33 291L388 291" fill="#7cb4c1"/><rect x="420.33289999999994" y="290.99969999999996" width="32.333299999999994" height="32.333299999999994" fill="#ffffff"/><rect x="420.33" y="291" width="16.17" height="16.17" fill="#7cb4c1"/><polygon points="436.5,291 436.5,307.17 420.33,307.17" fill="#7cb4c1"/><rect x="436.5" y="291" width="16.17" height="16.17" fill="#013132"/><polygon points="436.5,291 452.67,307.17 436.5,307.17" fill="#013132"/><rect x="420.33" y="307.17" width="16.17" height="16.17" fill="#013132"/><polygon points="420.33,307.17 436.5,307.17 420.33,323.34000000000003" fill="#7cb4c1"/><rect x="436.5" y="307.17" width="16.17" height="16.17" fill="#013132"/><polygon points="436.5,307.17 452.67,307.17 452.67,323.34000000000003" fill="#7cb4c1"/><rect x="452.67" y="291" width="32.33" height="32.33" fill="#7cb4c1"/><rect x="452.67" y="291" width="32.33" height="32.33" fill="#013132"/><rect x="484.9994999999999" y="290.99969999999996" width="32.333299999999994" height="32.333299999999994" fill="#ffffff"/><rect x="485" y="291" width="16.17" height="16.17" fill="#7cb4c1"/><path d="M 485 291 A 16.17 16.17 0 0 0 501.17 307.17 L 501.17 291L485 291" fill="#013132"/><rect x="501.17" y="291" width="16.17" height="16.17" fill="#013132"/><path d="M 501.17 307.17 A 16.17 16.17 0 0 0 517.34 291 L 501.17 291L501.17 307.17" fill="#013132"/><rect x="485" y="307.17" width="16.17" height="16.17" fill="#013132"/><path d="M 485 323.34000000000003 A 16.17 16.17 0 0 1  501.17 307.17 L 501.17 323.34000000000003L485 323.34000000000003" fill="#7cb4c1"/><rect x="501.17" y="307.17" width="16.17" height="16.17" fill="#7cb4c1"/><path d="M 501.17 307.17 A 16.17 16.17 0 0 1 517.34 323.34000000000003 L 501.17 323.34000000000003L501.17 307.17" fill="#013132"/><rect x="517.3327999999999" y="290.99969999999996" width="32.333299999999994" height="32.333299999999994" fill="#ffffff"/><rect x="517.33" y="291" width="16.17" height="16.17" fill="#013132"/><path d="M 517.33 307.17 A 16.17 16.17 0 0 1  533.5 291 L 533.5 307.17L517.33 307.17" fill="#013132"/><rect x="533.5" y="291" width="16.17" height="16.17" fill="#013132"/><path d="M 533.5 291 A 16.17 16.17 0 0 1 549.67 307.17 L 533.5 307.17L533.5 291" fill="#013132"/><rect x="517.33" y="307.17" width="16.17" height="16.17" fill="#7cb4c1"/><path d="M 517.33 307.17 A 16.17 16.17 0 0 0 533.5 323.34000000000003 L 533.5 307.17L517.33 307.17" fill="#7cb4c1"/><rect x="533.5" y="307.17" width="16.17" height="16.17" fill="#013132"/><path d="M 533.5 323.34000000000003 A 16.17 16.17 0 0 0 549.67 307.17 L 533.5 307.17L533.5 323.34000000000003" fill="#7cb4c1"/><rect x="549.6660999999999" y="290.99969999999996" width="32.333299999999994" height="32.333299999999994" fill="#ffffff"/><rect x="549.67" y="291" width="16.17" height="16.17" fill="#7cb4c1"/><path d="M 549.67 307.17 A 16.17 16.17 0 0 1 565.8399999999999 291 L 565.8399999999999 295.0425 A 12.127500000000001 12.127500000000001 0 0 0 553.7125 307.17" fill="#7cb4c1"/><rect x="565.83" y="291" width="16.17" height="16.17" fill="#7cb4c1"/><path d="M 565.83 291 A 16.17 16.17 0 0 1 582 307.17 L 577.9575000000001 307.17 A 12.127500000000001 12.127500000000001 0 0 0 565.83 295.0425" fill="#7cb4c1"/><rect x="549.67" y="307.17" width="16.17" height="16.17" fill="#013132"/><path d="M 549.67 307.17 A 16.17 16.17 0 0 0 565.8399999999999 323.34000000000003 L 565.8399999999999 319.2975 A 12.127500000000001 12.127500000000001 0 0 1 553.7125 307.17" fill="#013132"/><rect x="565.83" y="307.17" width="16.17" height="16.17" fill="#013132"/><path d="M 565.83 323.34000000000003 A 16.17 16.17 0 0 0 582 307.17 L 577.9575000000001 307.17 A 12.127500000000001 12.127500000000001 0 0 1 565.83 319.2975" fill="#7cb4c1"/><rect x="582" y="291" width="32.33" height="32.33" fill="#7cb4c1"/><polygon points="582,291 614.33,291 582,323.33" fill="#7cb4c1"/><rect x="614.3326999999999" y="290.99969999999996" width="32.333299999999994" height="32.333299999999994" fill="#ffffff"/><rect x="614.33" y="291" width="16.17" height="16.17" fill="#013132"/><polygon points="630.5,291 630.5,307.17 614.33,307.17" fill="#7cb4c1"/><rect x="630.5" y="291" width="16.17" height="16.17" fill="#013132"/><polygon points="630.5,291 646.67,307.17 630.5,307.17" fill="#7cb4c1"/><rect x="614.33" y="307.17" width="16.17" height="16.17" fill="#7cb4c1"/><polygon points="614.33,307.17 630.5,307.17 630.5,323.34000000000003" fill="#7cb4c1"/><rect x="630.5" y="307.17" width="16.17" height="16.17" fill="#7cb4c1"/><polygon points="630.5,307.17 646.67,307.17 630.5,323.34000000000003" fill="#013132"/></g></svg>