<?xml version="1.0" standalone="no"?><svg xmlns:xlink="http://www.w3.org/1999/xlink" xmlns="http://www.w3.org/2000/svg" viewBox="0 0 1265 758.9812204830343" preserveAspectRatio="xMaxYMax slice"><g transform="scale(2.3474396206982937)"><rect x="0" y="0" width="538.8883333333333" height="323.33299999999997" fill="#ffffff"/><rect x="0" y="0" width="53.89" height="53.89" fill="#013132"/><path d="M 0 53.89 A 53.89 53.89 0 0 0 53.89 0 L 0 0L0 53.89" fill="#013132"/><rect x="53.89" y="0" width="53.89" height="53.89" fill="#013132"/><polygon points="53.89,0 107.78,53.89 53.89,53.89" fill="#025c73"/><rect x="107.78" y="0" width="53.89" height="53.89" fill="#025c73"/><path d="M 107.78 0 A 53.89 53.89 0 0 1  161.67000000000002 53.89 L 107.78 0 A 53.89 53.89 0 0 0 161.67000000000002 53.89" fill="#025c73"/><rect x="161.66649999999998" y="0" width="53.88883333333333" height="53.88883333333333" fill="#ffffff"/><rect x="161.67" y="0" width="26.94" height="26.94" fill="#025c73"/><polygon points="188.60999999999999,0 188.60999999999999,26.94 161.67,26.94" fill="#013132"/><rect x="188.61" y="0" width="26.94" height="26.94" fill="#013132"/><polygon points="188.61,0 215.55,26.94 188.61,26.94" fill="#025c73"/><rect x="161.67" y="26.94" width="26.94" height="26.94" fill="#013132"/><polygon points="161.67,26.94 188.60999999999999,26.94 188.60999999999999,53.88" fill="#013132"/><rect x="188.61" y="26.94" width="26.94" height="26.94" fill="#013132"/><polygon points="188.61,26.94 215.55,26.94 188.61,53.88" fill="#013132"/><rect x="215.55533333333332" y="0" width="53.88883333333333" height="53.88883333333333" fill="#ffffff"/><rect x="215.56" y="0" width="26.94" height="26.94" fill="#013132"/><path d="M 215.56 26.94 A 26.94 26.94 0 0 0 242.5 0 L 215.56 0L215.56 26.94" fill="#013132"/><rect x="242.5" y="0" width="26.94" height="26.94" fill="#025c73"/><path d="M 242.5 0 A 26.94 26.94 0 0 0 269.44 26.94 L 269.44 0L242.5 0" fill="#025c73"/><rect x="215.56" y="26.94" width="26.94" height="26.94" fill="#025c73"/><path d="M 215.56 26.94 A 26.94 26.94 0 0 1 242.5 53.88 L 215.56 53.88L215.56 26.94" fill="#013132"/><rect x="242.5" y="26.94" width="26.94" height="26.94" fill="#013132"/><path d="M 242.5 53.88 A 26.94 26.94 0 0 1  269.44 26.94 L 269.44 53.88L242.5 53.88" fill="#025c73"/><rect x="269.44416666666666" y="0" width="53.88883333333333" height="53.88883333333333" fill="#ffffff"/><rect x="269.44" y="0" width="26.94" height="26.94" fill="#013132"/><polygon points="296.38,0 296.38,26.94 269.44,26.94" fill="#025c73"/><rect x="296.39" y="0" width="26.94" height="26.94" fill="#025c73"/><polygon points="296.39,0 323.33,26.94 296.39,26.94" fill="#025c73"/><rect x="269.44" y="26.94" width="26.94" height="26.94" fill="#013132"/><polygon points="269.44,26.94 296.38,26.94 296.38,53.88" fill="#013132"/><rect x="296.39" y="26.94" width="26.94" height="26.94" fill="#013132"/><polygon points="296.39,26.94 323.33,26.94 296.39,53.88" fill="#025c73"/><rect x="323.33" y="0" width="53.89" height="53.89" fill="#025c73"/><path d="M 323.33 53.89 A 53.89 53.89 0 0 0 377.21999999999997 0 L 323.33 0L323.33 53.89" fill="#013132"/><rect x="377.22" y="0" width="53.89" height="53.89" fill="#013132"/><rect x="377.22" y="0" width="53.89" height="53.89" fill="#025c73"/><rect x="431.11066666666665" y="0" width="53.88883333333333" height="53.88883333333333" fill="#ffffff"/><rect x="431.11" y="0" width="26.94" height="26.94" fill="#013132"/><circle cx="444.58000000000004" cy="13.47" r="13.47" fill="#025c73"/><rect x="458.06" y="0" width="26.94" height="26.94" fill="#025c73"/><rect x="458.06" y="0" width="26.94" height="26.94" fill="#013132"/><rect x="431.11" y="26.94" width="26.94" height="26.94" fill="#013132"/><circle cx="444.58000000000004" cy="40.410000000000004" r="13.47" fill="#013132"/><rect x="458.06" y="26.94" width="26.94" height="26.94" fill="#025c73"/><rect x="458.06" y="26.94" width="26.94" height="26.94" fill="#025c73"/><rect x="485" y="0" width="53.89" height="53.89" fill="#013132"/><path d="M 485 53.89 A 53.89 53.89 0 0 0 538.89 0 L 485 0L485 53.89" fill="#013132"/><rect x="0" y="53.88883333333333" width="53.88883333333333" height="53.88883333333333" fill="#ffffff"/><rect x="0" y="53.89" width="26.94" height="26.94" fill="#013132"/><circle cx="13.47" cy="67.36" r="13.47" fill="#025c73"/><rect x="26.94" y="53.89" width="26.94" height="26.94" fill="#013132"/><rect x="26.94" y="53.89" width="26.94" height="26.94" fill="#013132"/><rect x="0" y="80.83" width="26.94" height="26.94" fill="#013132"/><circle cx="13.47" cy="94.3" r="13.47" fill="#025c73"/><rect x="26.94" y="80.83" width="26.94" height="26.94" fill="#013132"/><rect x="26.94" y="80.83" width="26.94" height="26.94" fill="#025c73"/><rect x="53.89" y="53.89" width="53.89" height="53.89" fill="#025c73"/><polygon points="107.78,53.89 107.78,107.78 53.89,107.78" fill="#025c73"/><rect x="107.77766666666666" y="53.88883333333333" width="53.88883333333333" height="53.88883333333333" fill="#ffffff"/><rect x="107.78" y="53.89" width="26.94" height="26.94" fill="#013132"/><path d="M 107.78 80.83 A 26.94 26.94 0 0 1 134.72 53.89 L 134.72 60.625 A 20.205000000000002 20.205000000000002 0 0 0 114.515 80.83" fill="#025c73"/><rect x="134.72" y="53.89" width="26.94" height="26.94" fill="#013132"/><path d="M 134.72 53.89 A 26.94 26.94 0 0 1 161.66 80.83 L 154.925 80.83 A 20.205000000000002 20.205000000000002 0 0 0 134.72 60.625" fill="#013132"/><rect x="107.78" y="80.83" width="26.94" height="26.94" fill="#025c73"/><path d="M 107.78 80.83 A 26.94 26.94 0 0 0 134.72 107.77 L 134.72 101.035 A 20.205000000000002 20.205000000000002 0 0 1 114.515 80.83" fill="#013132"/><rect x="134.72" y="80.83" width="26.94" height="26.94" fill="#013132"/><path d="M 134.72 107.77 A 26.94 26.94 0 0 0 161.66 80.83 L 154.925 80.83 A 20.205000000000002 20.205000000000002 0 0 1 134.72 101.035" fill="#013132"/><rect x="161.67" y="53.89" width="53.89" height="53.89" fill="#025c73"/><polygon points="161.67,53.89 215.56,107.78 161.67,107.78" fill="#013132"/><rect x="215.55533333333332" y="53.88883333333333" width="53.88883333333333" height="53.88883333333333" fill="#ffffff"/><rect x="215.56" y="53.89" width="26.94" height="26.94" fill="#013132"/><path d="M 215.56 80.83 A 26.94 26.94 0 0 0 242.5 53.89 L 215.56 53.89L215.56 80.83" fill="#013132"/><rect x="242.5" y="53.89" width="26.94" height="26.94" fill="#013132"/><path d="M 242.5 53.89 A 26.94 26.94 0 0 0 269.44 80.83 L 269.44 53.89L242.5 53.89" fill="#025c73"/><rect x="215.56" y="80.83" width="26.94" height="26.94" fill="#025c73"/><path d="M 215.56 80.83 A 26.94 26.94 0 0 1 242.5 107.77 L 215.56 107.77L215.56 80.83" fill="#025c73"/><rect x="242.5" y="80.83" width="26.94" height="26.94" fill="#025c73"/><path d="M 242.5 107.77 A 26.94 26.94 0 0 1  269.44 80.83 L 269.44 107.77L242.5 107.77" fill="#013132"/><rect x="269.44" y="53.89" width="53.89" height="53.89" fill="#013132"/><polygon points="269.44,53.89 323.33,107.78 269.44,107.78" fill="#025c73"/><rect x="323.33299999999997" y="53.88883333333333" width="53.88883333333333" height="53.88883333333333" fill="#ffffff"/><rect x="323.33" y="53.89" width="26.94" height="26.94" fill="#025c73"/><path d="M 323.33 53.89 A 26.94 26.94 0 0 0 350.27 80.83 L 350.27 53.89L323.33 53.89" fill="#013132"/><rect x="350.28" y="53.89" width="26.94" height="26.94" fill="#025c73"/><path d="M 350.28 80.83 A 26.94 26.94 0 0 0 377.21999999999997 53.89 L 350.28 53.89L350.28 80.83" fill="#013132"/><rect x="323.33" y="80.83" width="26.94" height="26.94" fill="#025c73"/><path d="M 323.33 107.77 A 26.94 26.94 0 0 1  350.27 80.83 L 350.27 107.77L323.33 107.77" fill="#025c73"/><rect x="350.28" y="80.83" width="26.94" height="26.94" fill="#025c73"/><path d="M 350.28 80.83 A 26.94 26.94 0 0 1 377.21999999999997 107.77 L 350.28 107.77L350.28 80.83" fill="#025c73"/><rect x="377.22" y="53.89" width="53.89" height="53.89" fill="#025c73"/><path d="M 377.22 53.89 A 53.89 53.89 0 0 1  431.11 107.78 L 377.22 53.89 A 53.89 53.89 0 0 0 431.11 107.78" fill="#025c73"/><rect x="431.11066666666665" y="53.88883333333333" width="53.88883333333333" height="53.88883333333333" fill="#ffffff"/><rect x="431.11" y="53.89" width="26.94" height="26.94" fill="#025c73"/><path d="M 431.11 80.83 A 26.94 26.94 0 0 1 458.05 53.89 L 458.05 60.625 A 20.205000000000002 20.205000000000002 0 0 0 437.845 80.83" fill="#013132"/><rect x="458.06" y="53.89" width="26.94" height="26.94" fill="#013132"/><path d="M 458.06 53.89 A 26.94 26.94 0 0 1 485 80.83 L 478.265 80.83 A 20.205000000000002 20.205000000000002 0 0 0 458.06 60.625" fill="#025c73"/><rect x="431.11" y="80.83" width="26.94" height="26.94" fill="#025c73"/><path d="M 431.11 80.83 A 26.94 26.94 0 0 0 458.05 107.77 L 458.05 101.035 A 20.205000000000002 20.205000000000002 0 0 1 437.845 80.83" fill="#013132"/><rect x="458.06" y="80.83" width="26.94" height="26.94" fill="#013132"/><path d="M 458.06 107.77 A 26.94 26.94 0 0 0 485 80.83 L 478.265 80.83 A 20.205000000000002 20.205000000000002 0 0 1 458.06 101.035" fill="#025c73"/><rect x="485" y="53.89" width="53.89" height="53.89" fill="#013132"/><polygon points="485,53.89 538.89,107.78 485,107.78" fill="#013132"/><rect x="0" y="107.77766666666666" width="53.88883333333333" height="53.88883333333333" fill="#ffffff"/><rect x="0" y="107.78" width="26.94" height="26.94" fill="#013132"/><polygon points="26.94,107.78 26.94,134.72 0,134.72" fill="#025c73"/><rect x="26.94" y="107.78" width="26.94" height="26.94" fill="#013132"/><polygon points="26.94,107.78 53.88,134.72 26.94,134.72" fill="#013132"/><rect x="0" y="134.72" width="26.94" height="26.94" fill="#013132"/><polygon points="0,134.72 26.94,134.72 0,161.66" fill="#025c73"/><rect x="26.94" y="134.72" width="26.94" height="26.94" fill="#013132"/><polygon points="26.94,134.72 53.88,134.72 53.88,161.66" fill="#013132"/><rect x="53.88883333333333" y="107.77766666666666" width="53.88883333333333" height="53.88883333333333" fill="#ffffff"/><rect x="53.89" y="107.78" width="26.94" height="26.94" fill="#013132"/><polygon points="80.83,107.78 80.83,134.72 53.89,134.72" fill="#013132"/><rect x="80.83" y="107.78" width="26.94" height="26.94" fill="#025c73"/><polygon points="80.83,107.78 107.77,107.78 80.83,134.72" fill="#025c73"/><rect x="53.89" y="134.72" width="26.94" height="26.94" fill="#025c73"/><polygon points="53.89,134.72 80.83,134.72 80.83,161.66" fill="#025c73"/><rect x="80.83" y="134.72" width="26.94" height="26.94" fill="#013132"/><polygon points="80.83,134.72 107.77,161.66 80.83,161.66" fill="#013132"/><rect x="107.77766666666666" y="107.77766666666666" width="53.88883333333333" height="53.88883333333333" fill="#ffffff"/><rect x="107.78" y="107.78" width="26.94" height="26.94" fill="#025c73"/><polygon points="134.72,107.78 134.72,134.72 107.78,134.72" fill="#013132"/><rect x="134.72" y="107.78" width="26.94" height="26.94" fill="#025c73"/><polygon points="134.72,107.78 161.66,134.72 134.72,134.72" fill="#025c73"/><rect x="107.78" y="134.72" width="26.94" height="26.94" fill="#013132"/><polygon points="107.78,134.72 134.72,134.72 107.78,161.66" fill="#013132"/><rect x="134.72" y="134.72" width="26.94" height="26.94" fill="#013132"/><polygon points="134.72,134.72 161.66,134.72 161.66,161.66" fill="#025c73"/><rect x="161.67" y="107.78" width="53.89" height="53.89" fill="#013132"/><path d="M 161.67 161.67000000000002 A 53.89 53.89 0 0 0 215.56 107.78 L 161.67 107.78L161.67 161.67000000000002" fill="#013132"/><rect x="215.56" y="107.78" width="53.89" height="53.89" fill="#013132"/><polygon points="215.56,107.78 269.45,107.78 269.45,161.67000000000002" fill="#025c73"/><rect x="269.44416666666666" y="107.77766666666666" width="53.88883333333333" height="53.88883333333333" fill="#ffffff"/><rect x="269.44" y="107.78" width="26.94" height="26.94" fill="#013132"/><polygon points="296.38,107.78 296.38,134.72 269.44,134.72" fill="#025c73"/><rect x="296.39" y="107.78" width="26.94" height="26.94" fill="#013132"/><polygon points="296.39,107.78 323.33,134.72 296.39,134.72" fill="#013132"/><rect x="269.44" y="134.72" width="26.94" height="26.94" fill="#013132"/><polygon points="269.44,134.72 296.38,134.72 269.44,161.66" fill="#013132"/><rect x="296.39" y="134.72" width="26.94" height="26.94" fill="#025c73"/><polygon points="296.39,134.72 323.33,134.72 323.33,161.66" fill="#025c73"/><rect x="323.33" y="107.78" width="53.89" height="53.89" fill="#013132"/><rect x="323.33" y="107.78" width="53.89" height="53.89" fill="#025c73"/><rect x="377.22183333333334" y="107.77766666666666" width="53.88883333333333" height="53.88883333333333" fill="#ffffff"/><rect x="377.22" y="107.78" width="26.94" height="26.94" fill="#013132"/><polygon points="404.16,107.78 404.16,134.72 377.22,134.72" fill="#013132"/><rect x="404.17" y="107.78" width="26.94" height="26.94" fill="#013132"/><polygon points="404.17,107.78 431.11,134.72 404.17,134.72" fill="#013132"/><rect x="377.22" y="134.72" width="26.94" height="26.94" fill="#013132"/><polygon points="377.22,134.72 404.16,134.72 377.22,161.66" fill="#013132"/><rect x="404.17" y="134.72" width="26.94" height="26.94" fill="#013132"/><polygon points="404.17,134.72 431.11,134.72 431.11,161.66" fill="#025c73"/><rect x="431.11" y="107.78" width="53.89" height="53.89" fill="#025c73"/><polygon points="485,107.78 485,161.67000000000002 431.11,161.67000000000002" fill="#013132"/><rect x="485" y="107.78" width="53.89" height="53.89" fill="#013132"/><polygon points="538.89,107.78 538.89,161.67000000000002 485,161.67000000000002" fill="#013132"/><rect x="0" y="161.66649999999998" width="53.88883333333333" height="53.88883333333333" fill="#ffffff"/><rect x="0" y="161.67" width="26.94" height="26.94" fill="#025c73"/><path d="M 0 161.67 A 26.94 26.94 0 0 0 26.94 188.60999999999999 L 26.94 161.67L0 161.67" fill="#025c73"/><rect x="26.94" y="161.67" width="26.94" height="26.94" fill="#025c73"/><path d="M 26.94 188.60999999999999 A 26.94 26.94 0 0 0 53.88 161.67 L 26.94 161.67L26.94 188.60999999999999" fill="#013132"/><rect x="0" y="188.61" width="26.94" height="26.94" fill="#013132"/><path d="M 0 215.55 A 26.94 26.94 0 0 1  26.94 188.61 L 26.94 215.55L0 215.55" fill="#013132"/><rect x="26.94" y="188.61" width="26.94" height="26.94" fill="#025c73"/><path d="M 26.94 188.61 A 26.94 26.94 0 0 1 53.88 215.55 L 26.94 215.55L26.94 188.61" fill="#025c73"/><rect x="53.89" y="161.67" width="53.89" height="53.89" fill="#013132"/><polygon points="53.89,161.67 107.78,161.67 107.78,215.56" fill="#013132"/><rect x="107.78" y="161.67" width="53.89" height="53.89" fill="#025c73"/><path d="M 107.78 161.67 A 53.89 53.89 0 0 1  161.67000000000002 215.56 L 107.78 161.67 A 53.89 53.89 0 0 0 161.67000000000002 215.56" fill="#025c73"/><rect x="161.66649999999998" y="161.66649999999998" width="53.88883333333333" height="53.88883333333333" fill="#ffffff"/><rect x="161.67" y="161.67" width="26.94" height="26.94" fill="#025c73"/><polygon points="188.60999999999999,161.67 188.60999999999999,188.60999999999999 161.67,188.60999999999999" fill="#013132"/><rect x="188.61" y="161.67" width="26.94" height="26.94" fill="#025c73"/><polygon points="188.61,161.67 215.55,188.60999999999999 188.61,188.60999999999999" fill="#025c73"/><rect x="161.67" y="188.61" width="26.94" height="26.94" fill="#013132"/><polygon points="161.67,188.61 188.60999999999999,188.61 188.60999999999999,215.55" fill="#013132"/><rect x="188.61" y="188.61" width="26.94" height="26.94" fill="#025c73"/><polygon points="188.61,188.61 215.55,188.61 188.61,215.55" fill="#025c73"/><rect x="215.55533333333332" y="161.66649999999998" width="53.88883333333333" height="53.88883333333333" fill="#ffffff"/><rect x="215.56" y="161.67" width="26.94" height="26.94" fill="#013132"/><path d="M 215.56 188.60999999999999 A 26.94 26.94 0 0 1  242.5 161.67 L 242.5 188.60999999999999L215.56 188.60999999999999" fill="#025c73"/><rect x="242.5" y="161.67" width="26.94" height="26.94" fill="#013132"/><path d="M 242.5 161.67 A 26.94 26.94 0 0 1 269.44 188.60999999999999 L 242.5 188.60999999999999L242.5 161.67" fill="#013132"/><rect x="215.56" y="188.61" width="26.94" height="26.94" fill="#025c73"/><path d="M 215.56 188.61 A 26.94 26.94 0 0 0 242.5 215.55 L 242.5 188.61L215.56 188.61" fill="#025c73"/><rect x="242.5" y="188.61" width="26.94" height="26.94" fill="#013132"/><path d="M 242.5 215.55 A 26.94 26.94 0 0 0 269.44 188.61 L 242.5 188.61L242.5 215.55" fill="#025c73"/><rect x="269.44416666666666" y="161.66649999999998" width="53.88883333333333" height="53.88883333333333" fill="#ffffff"/><rect x="269.44" y="161.67" width="26.94" height="26.94" fill="#013132"/><path d="M 269.44 161.67 A 26.94 26.94 0 0 1 296.38 188.60999999999999 L 269.44 188.60999999999999L269.44 161.67" fill="#013132"/><rect x="296.39" y="161.67" width="26.94" height="26.94" fill="#013132"/><path d="M 296.39 188.60999999999999 A 26.94 26.94 0 0 1  323.33 161.67 L 323.33 188.60999999999999L296.39 188.60999999999999" fill="#013132"/><rect x="269.44" y="188.61" width="26.94" height="26.94" fill="#013132"/><path d="M 269.44 215.55 A 26.94 26.94 0 0 0 296.38 188.61 L 269.44 188.61L269.44 215.55" fill="#013132"/><rect x="296.39" y="188.61" width="26.94" height="26.94" fill="#013132"/><path d="M 296.39 188.61 A 26.94 26.94 0 0 0 323.33 215.55 L 323.33 188.61L296.39 188.61" fill="#025c73"/><rect x="323.33" y="161.67" width="53.89" height="53.89" fill="#025c73"/><rect x="323.33" y="161.67" width="53.89" height="53.89" fill="#025c73"/><rect x="377.22" y="161.67" width="53.89" height="53.89" fill="#025c73"/><path d="M 377.22 215.56 A 53.89 53.89 0 0 1  431.11 161.67 L 377.22 215.56 A 53.89 53.89 0 0 0 431.11 161.67" fill="#013132"/><rect x="431.11" y="161.67" width="53.89" height="53.89" fill="#013132"/><path d="M 431.11 215.56 A 53.89 53.89 0 0 1  485 161.67 L 485 215.56L431.11 215.56" fill="#013132"/><rect x="484.99949999999995" y="161.66649999999998" width="53.88883333333333" height="53.88883333333333" fill="#ffffff"/><rect x="485" y="161.67" width="26.94" height="26.94" fill="#025c73"/><circle cx="498.47" cy="175.14" r="13.47" fill="#013132"/><rect x="511.94" y="161.67" width="26.94" height="26.94" fill="#025c73"/><rect x="511.94" y="161.67" width="26.94" height="26.94" fill="#013132"/><rect x="485" y="188.61" width="26.94" height="26.94" fill="#025c73"/><circle cx="498.47" cy="202.08" r="13.47" fill="#025c73"/><rect x="511.94" y="188.61" width="26.94" height="26.94" fill="#025c73"/><rect x="511.94" y="188.61" width="26.94" height="26.94" fill="#025c73"/><rect x="0" y="215.56" width="53.89" height="53.89" fill="#025c73"/><path d="M 0 215.56 A 53.89 53.89 0 0 0 53.89 269.45 L 53.89 215.56L0 215.56" fill="#013132"/><rect x="53.89" y="215.56" width="53.89" height="53.89" fill="#013132"/><rect x="53.89" y="215.56" width="53.89" height="53.89" fill="#013132"/><rect x="107.77766666666666" y="215.55533333333332" width="53.88883333333333" height="53.88883333333333" fill="#ffffff"/><rect x="107.78" y="215.56" width="26.94" height="26.94" fill="#025c73"/><polygon points="134.72,215.56 134.72,242.5 107.78,242.5" fill="#013132"/><rect x="134.72" y="215.56" width="26.94" height="26.94" fill="#013132"/><polygon points="134.72,215.56 161.66,242.5 134.72,242.5" fill="#013132"/><rect x="107.78" y="242.5" width="26.94" height="26.94" fill="#025c73"/><polygon points="107.78,242.5 134.72,242.5 107.78,269.44" fill="#013132"/><rect x="134.72" y="242.5" width="26.94" height="26.94" fill="#025c73"/><polygon points="134.72,242.5 161.66,242.5 161.66,269.44" fill="#013132"/><rect x="161.67" y="215.56" width="53.89" height="53.89" fill="#013132"/><rect x="161.67" y="215.56" width="53.89" height="53.89" fill="#025c73"/><rect x="215.56" y="215.56" width="53.89" height="53.89" fill="#013132"/><rect x="215.56" y="215.56" width="53.89" height="53.89" fill="#025c73"/><rect x="269.44" y="215.56" width="53.89" height="53.89" fill="#025c73"/><path d="M 269.44 215.56 A 53.89 53.89 0 0 1  323.33 269.45 L 269.44 215.56 A 53.89 53.89 0 0 0 323.33 269.45" fill="#013132"/><rect x="323.33" y="215.56" width="53.89" height="53.89" fill="#025c73"/><path d="M 323.33 215.56 A 53.89 53.89 0 0 1 377.21999999999997 269.45 L 323.33 269.45L323.33 215.56" fill="#013132"/><rect x="377.22183333333334" y="215.55533333333332" width="53.88883333333333" height="53.88883333333333" fill="#ffffff"/><rect x="377.22" y="215.56" width="26.94" height="26.94" fill="#025c73"/><polygon points="404.16,215.56 404.16,242.5 377.22,242.5" fill="#025c73"/><rect x="404.17" y="215.56" width="26.94" height="26.94" fill="#025c73"/><polygon points="404.17,215.56 431.11,242.5 404.17,242.5" fill="#013132"/><rect x="377.22" y="242.5" width="26.94" height="26.94" fill="#013132"/><polygon points="377.22,242.5 404.16,242.5 404.16,269.44" fill="#025c73"/><rect x="404.17" y="242.5" width="26.94" height="26.94" fill="#025c73"/><polygon points="404.17,242.5 431.11,242.5 404.17,269.44" fill="#013132"/><rect x="431.11066666666665" y="215.55533333333332" width="53.88883333333333" height="53.88883333333333" fill="#ffffff"/><rect x="431.11" y="215.56" width="26.94" height="26.94" fill="#013132"/><path d="M 431.11 242.5 A 26.94 26.94 0 0 0 458.05 215.56 L 431.11 215.56L431.11 242.5" fill="#013132"/><rect x="458.06" y="215.56" width="26.94" height="26.94" fill="#025c73"/><path d="M 458.06 215.56 A 26.94 26.94 0 0 0 485 242.5 L 485 215.56L458.06 215.56" fill="#025c73"/><rect x="431.11" y="242.5" width="26.94" height="26.94" fill="#025c73"/><path d="M 431.11 242.5 A 26.94 26.94 0 0 1 458.05 269.44 L 431.11 269.44L431.11 242.5" fill="#013132"/><rect x="458.06" y="242.5" width="26.94" height="26.94" fill="#013132"/><path d="M 458.06 269.44 A 26.94 26.94 0 0 1  485 242.5 L 485 269.44L458.06 269.44" fill="#013132"/><rect x="484.99949999999995" y="215.55533333333332" width="53.88883333333333" height="53.88883333333333" fill="#ffffff"/><rect x="485" y="215.56" width="26.94" height="26.94" fill="#013132"/><circle cx="498.47" cy="229.03" r="13.47" fill="#013132"/><rect x="511.94" y="215.56" width="26.94" height="26.94" fill="#025c73"/><rect x="511.94" y="215.56" width="26.94" height="26.94" fill="#013132"/><rect x="485" y="242.5" width="26.94" height="26.94" fill="#025c73"/><circle cx="498.47" cy="255.97" r="13.47" fill="#025c73"/><rect x="511.94" y="242.5" width="26.94" height="26.94" fill="#025c73"/><rect x="511.94" y="242.5" width="26.94" height="26.94" fill="#013132"/><rect x="0" y="269.44" width="53.89" height="53.89" fill="#025c73"/><rect x="0" y="269.44" width="53.89" height="53.89" fill="#013132"/><rect x="53.89" y="269.44" width="53.89" height="53.89" fill="#013132"/><path d="M 53.89 269.44 A 53.89 53.89 0 0 1  107.78 323.33 L 53.89 269.44 A 53.89 53.89 0 0 0 107.78 323.33" fill="#013132"/><rect x="107.77766666666666" y="269.44416666666666" width="53.88883333333333" height="53.88883333333333" fill="#ffffff"/><rect x="107.78" y="269.44" width="26.94" height="26.94" fill="#013132"/><polygon points="134.72,269.44 134.72,296.38 107.78,296.38" fill="#025c73"/><rect x="134.72" y="269.44" width="26.94" height="26.94" fill="#013132"/><polygon points="134.72,269.44 161.66,296.38 134.72,296.38" fill="#025c73"/><rect x="107.78" y="296.39" width="26.94" height="26.94" fill="#013132"/><polygon points="107.78,296.39 134.72,296.39 107.78,323.33" fill="#025c73"/><rect x="134.72" y="296.39" width="26.94" height="26.94" fill="#013132"/><polygon points="134.72,296.39 161.66,296.39 161.66,323.33" fill="#013132"/><rect x="161.67" y="269.44" width="53.89" height="53.89" fill="#013132"/><rect x="161.67" y="269.44" width="53.89" height="53.89" fill="#025c73"/><rect x="215.56" y="269.44" width="53.89" height="53.89" fill="#025c73"/><rect x="215.56" y="269.44" width="53.89" height="53.89" fill="#013132"/><rect x="269.44416666666666" y="269.44416666666666" width="53.88883333333333" height="53.88883333333333" fill="#ffffff"/><rect x="269.44" y="269.44" width="26.94" height="26.94" fill="#025c73"/><polygon points="296.38,269.44 296.38,296.38 269.44,296.38" fill="#013132"/><rect x="296.39" y="269.44" width="26.94" height="26.94" fill="#013132"/><polygon points="296.39,269.44 323.33,269.44 296.39,296.38" fill="#013132"/><rect x="269.44" y="296.39" width="26.94" height="26.94" fill="#025c73"/><polygon points="269.44,296.39 296.38,296.39 296.38,323.33" fill="#013132"/><rect x="296.39" y="296.39" width="26.94" height="26.94" fill="#013132"/><polygon points="296.39,296.39 323.33,323.33 296.39,323.33" fill="#013132"/><rect x="323.33299999999997" y="269.44416666666666" width="53.88883333333333" height="53.88883333333333" fill="#ffffff"/><rect x="323.33" y="269.44" width="26.94" height="26.94" fill="#013132"/><path d="M 323.33 269.44 A 26.94 26.94 0 0 0 350.27 296.38 L 350.27 269.44L323.33 269.44" fill="#025c73"/><rect x="350.28" y="269.44" width="26.94" height="26.94" fill="#025c73"/><path d="M 350.28 296.38 A 26.94 26.94 0 0 0 377.21999999999997 269.44 L 350.28 269.44L350.28 296.38" fill="#013132"/><rect x="323.33" y="296.39" width="26.94" height="26.94" fill="#013132"/><path d="M 323.33 323.33 A 26.94 26.94 0 0 1  350.27 296.39 L 350.27 323.33L323.33 323.33" fill="#013132"/><rect x="350.28" y="296.39" width="26.94" height="26.94" fill="#013132"/><path d="M 350.28 296.39 A 26.94 26.94 0 0 1 377.21999999999997 323.33 L 350.28 323.33L350.28 296.39" fill="#013132"/><rect x="377.22" y="269.44" width="53.89" height="53.89" fill="#013132"/><polygon points="431.11,269.44 431.11,323.33 377.22,323.33" fill="#025c73"/><rect x="431.11066666666665" y="269.44416666666666" width="53.88883333333333" height="53.88883333333333" fill="#ffffff"/><rect x="431.11" y="269.44" width="26.94" height="26.94" fill="#013132"/><path d="M 431.11 269.44 A 26.94 26.94 0 0 1 458.05 296.38 L 431.11 296.38L431.11 269.44" fill="#013132"/><rect x="458.06" y="269.44" width="26.94" height="26.94" fill="#013132"/><path d="M 458.06 296.38 A 26.94 26.94 0 0 1  485 269.44 L 485 296.38L458.06 296.38" fill="#025c73"/><rect x="431.11" y="296.39" width="26.94" height="26.94" fill="#013132"/><path d="M 431.11 323.33 A 26.94 26.94 0 0 0 458.05 296.39 L 431.11 296.39L431.11 323.33" fill="#025c73"/><rect x="458.06" y="296.39" width="26.94" height="26.94" fill="#025c73"/><path d="M 458.06 296.39 A 26.94 26.94 0 0 0 485 323.33 L 485 296.39L458.06 296.39" fill="#013132"/><rect x="485" y="269.44" width="53.89" height="53.89" fill="#013132"/><path d="M 485 323.33 A 53.89 53.89 0 0 0 538.89 269.44 L 485 269.44L485 323.33" fill="#013132"/></g></svg>